<?xml version="1.0" encoding="utf-8"?>
<!-- Generator: Adobe Illustrator 27.6.1, SVG Export Plug-In . SVG Version: 6.00 Build 0)  -->
<svg version="1.1" id="Layer_2_00000152946822179082623350000017591624019617510034_"
	 xmlns="http://www.w3.org/2000/svg" xmlns:xlink="http://www.w3.org/1999/xlink" x="0px" y="0px" viewBox="0 0 302.2 126.8"
	 style="enable-background:new 0 0 302.2 126.8;" xml:space="preserve">
<style type="text/css">
	.st0{fill:#0049FF;}
	.st1{fill:#F0FCE1;}
</style>
<path class="st0" d="M298.4,52.4c0.7-2.7,1-5.4,1-8.3V36c0-19.3-15.7-35-35-35h-30.2c-3.6,0-7.1,0.6-10.4,1.6C218.6,0.9,213,0,207,0
	c-9.3,0-18,2-25.7,5.8C176.2,2.7,170.1,1,163.6,1h-8c-3.5,0-6.9,0.5-10.2,1.5c-3.2-1-6.6-1.5-10.2-1.5h-8c-6.4,0-12.5,1.7-17.7,4.8
	C102.3,2.1,93.9,0,84.8,0c-5.9,0-11.6,0.8-16.9,2.4C64.7,1.5,61.4,1,57.9,1h-8C39.5,1,30,5.5,23.5,13c-8.5,3-15.6,9.1-19.8,17.4
	l-0.1,0.2C1.2,35.4,0,40.7,0,46.1v8C0,59.6,1.3,65,3.7,69.8L3.8,70c2.3,4.7,5.7,8.7,9.7,11.9v9c0,19.3,15.7,35,35,35h9.5
	c1,0,2-0.1,3-0.1c1,0.1,2,0.1,3,0.1v0h38.3c0.9,0,1.8,0,2.7-0.1c0.9,0.1,1.9,0.1,2.8,0.1h10.4c1.3,0,2.6-0.1,3.8-0.2
	c1.3,0.1,2.5,0.2,3.8,0.2l0,0h9.5c3.3,0,6.5-0.5,9.5-1.3c3,0.8,6.2,1.3,9.4,1.3l0,0h9.5c1.4,0,2.7-0.1,4-0.2c1.3,0.1,2.6,0.2,4,0.2
	H182c0.7,0,1.4,0,2.1-0.1c0.7,0,1.4,0.1,2,0.1h38.3c2.8,0,5.5-0.3,8.1-1c4.7,1.2,9.7,1.9,14.9,1.9v0c31.2,0,54.8-23.1,54.8-53.7
	C302.2,65.7,300.9,58.7,298.4,52.4z"/>
<g>
	<path class="st1" d="M57.9,36v54.9h-9.5V51c-2.3,2.5-6.4,3.5-11.1,3.5c-0.6,0-1.8-0.1-2.2-0.2L35,54.2v-8l0.1-0.2
		c8.7,0,13.5-3,14.8-10L57.9,36L57.9,36z"/>
	<path class="st1" d="M102.2,82.7v8.2H63.9c0.6-13.1,6.7-19.6,16.4-25.7l1.5-1c2.4-1.5,4.3-2.8,5.7-3.8c2.8-2.2,4.8-5.1,4.8-9.1
		c0-5.1-2.6-8.3-7.8-8.3c-3.4,0-5.8,1.1-7,3.3c-1.2,2.2-1.8,4.7-1.7,7.8l-9.9-1.5c-0.2-9,5.4-17.5,18.9-17.5
		c10.4,0,17.2,6.2,17.2,16.5c-0.2,9.4-4.9,13.5-14.1,19.3c-2.6,1.5-4.7,2.9-6.2,3.9c-2.9,2-5.3,4.7-6.2,7.9H102.2L102.2,82.7z"/>
	<path class="st1" d="M107.7,80h10.4v10.8h-10.4V80z"/>
	<path class="st1" d="M135.2,36v54.9h-9.5V51c-2.3,2.5-6.4,3.5-11.1,3.5c-0.6,0-1.8-0.1-2.2-0.2l-0.1-0.2v-8l0.1-0.2
		c8.7,0,13.5-3,14.8-10L135.2,36L135.2,36z"/>
	<path class="st1" d="M163.6,36v54.9h-9.5V51c-2.3,2.5-6.4,3.5-11.1,3.5c-0.6,0-1.8-0.1-2.2-0.2l-0.1-0.2v-8l0.1-0.2
		c8.7,0,13.5-3,14.8-10L163.6,36L163.6,36z"/>
	<path class="st1" d="M171.6,80h10.4v10.8h-10.4V80z"/>
	<path class="st1" d="M224.4,82.7v8.2h-38.3c0.6-13.1,6.7-19.6,16.4-25.7l1.5-1c2.4-1.5,4.3-2.8,5.7-3.8c2.8-2.2,4.8-5.1,4.8-9.1
		c0-5.1-2.6-8.3-7.8-8.3c-3.4,0-5.8,1.1-7,3.3c-1.2,2.2-1.8,4.7-1.7,7.8l-9.9-1.5c-0.2-9,5.4-17.5,18.9-17.5
		c10.4,0,17.2,6.2,17.2,16.5c-0.2,9.4-4.9,13.5-14.1,19.3c-2.6,1.5-4.6,2.9-6.2,3.9c-2.9,2-5.3,4.7-6.2,7.9H224.4L224.4,82.7z"/>
	<path class="st1" d="M247.4,91.8c-10.9,0-18.6-6.6-18.8-17.5l9.5-1.4c0,7.1,3.9,11.2,9.5,11.2c6.6,0,10.1-4.1,10.1-11.2
		c0-6.5-3.8-9.9-10.1-9.9c-3.9,0-7.1,1.4-9.1,4.1l-8.6-1.4l4.2-29.7h30.2v8.2h-22.3l-2.1,14.3c2.5-2.5,5.8-3.7,9.9-3.7
		c9.1,0,17.3,6,17.3,18.4C267.2,83.7,260.4,91.8,247.4,91.8L247.4,91.8z"/>
</g>
</svg>
