<?xml version="1.0" encoding="utf-8"?>
<!-- Generator: Adobe Illustrator 27.6.1, SVG Export Plug-In . SVG Version: 6.00 Build 0)  -->
<svg version="1.1" id="Layer_1" xmlns="http://www.w3.org/2000/svg" xmlns:xlink="http://www.w3.org/1999/xlink" x="0px" y="0px"
	 viewBox="0 0 377.2 130.4" style="enable-background:new 0 0 377.2 130.4;" xml:space="preserve">
<style type="text/css">
	.st0{fill:#0049FF;}
	.st1{fill:#F0FCE1;}
</style>
<path class="st0" d="M377.2,39.9V35c0-19.3-15.7-35-35-35H320c-2.6,0-5.1,0.3-7.5,0.8C309.1,0.3,305.6,0,302,0h-12
	c-7.8,0-14.9,2.5-20.7,6.8c-5.9-2.1-12.2-3.3-18.9-3.3c-4.9,0-9.5,0.6-14,1.7c-3.6-1.2-7.4-1.9-11.4-1.9h-9.5
	c-6.5,0-12.5,1.8-17.7,4.8c-5.2-3.1-11.2-4.8-17.7-4.8h-9.5c-13.3,0-24.9,7.5-30.8,18.4c0,0,0,0-0.1,0c-4.7-1.7-10.4-3-17-3.3
	C116.6,9.3,106,3.3,94.1,3.3H78.7c-4.9,0-9.7,1-14.1,3c-4.3-1.9-9.1-3-14.1-3H35C15.7,3.3,0,19,0,38.3v56.1c0,19.3,15.7,35,35,35
	h9.5c2.5,0,5-0.3,7.3-0.8c2.4,0.5,4.8,0.8,7.3,0.8h10.7c2.5,0,5-0.3,7.4-0.8c2.4,0.5,4.9,0.8,7.4,0.8h9.5c2.3,0,4.6-0.2,6.8-0.7
	c4.2,1.1,8.6,1.6,13.3,1.6l0,0c3.8,0,7.4-0.4,10.9-1.1c0.9,0.1,1.8,0.1,2.7,0.1h9.5c2.6,0,5.2-0.3,7.7-0.9c4.4,1.2,9.1,1.8,14,1.8
	c3.5,0,6.9-0.3,10.2-1c0.5,0,1.1,0,1.7,0h9.5c3,0,5.9-0.4,8.7-1.1c4.7,1.3,9.6,2.1,14.8,2.1c3.5,0,6.9-0.3,10.2-1c0.5,0,1.1,0,1.7,0
	h9.5c3.1,0,6.1-0.4,9-1.2c4.8,1.4,10,2.1,15.4,2.1l0,0c19.4,0,36-8.9,45.6-24.5c0.6-1,1.2-2.1,1.8-3.2h5.6c2.2,0,6,0,10.6-0.7
	c2.3,0.5,4.6,0.7,7,0.7v0h22.2c19.3,0,35-15.7,35-35v-4.9c0-3.8-0.6-7.5-1.7-10.9v-1.2C376.6,47.3,377.2,43.7,377.2,39.9z"/>
<g>
	<path class="st1" d="M35,38.3h15.5l9.1,28.8c2.1,6.7,3.7,12.4,4.9,17.2h0.1l2.2-8.2c0.9-3.2,1.8-6.2,2.6-8.9l9.2-28.9h15.4v56.1
		h-9.5V61.5c0-1.6,0-3.8,0.1-6.7l0.2-7.6h-0.2c-2.2,7.6-3.7,12.7-4.5,15.1L69.9,94.4H59.1L48.8,62.2c-0.2-0.4-0.9-2.6-2.1-6.9
		l-2.5-8.1h-0.2c0.2,7.3,0.4,12.1,0.4,14.4v32.8H35L35,38.3L35,38.3z"/>
	<path class="st1" d="M114.7,70.9l11.9-2.2c0-3.1-0.2-4.6-1.2-6.1c-1-1.5-3.1-2.2-6.4-2.2c-5.5,0-8.1,2.1-8.1,7.4l-9.3-1.2
		c0.2-4.7,1.9-8,5-10.2c3-2.1,7.4-3.1,13.1-3.1c10.3,0,16.1,4.6,16.1,13.2v20.6c0,2.5,0.5,4.7,1.4,6.9v0.3h-9.5
		c-0.4-1.8-0.6-3.7-0.6-5.7c-2.2,4.2-6.7,6.7-13.1,6.7c-7.5,0-13.9-4-13.9-12S106.5,72.4,114.7,70.9L114.7,70.9z M126.7,75.3
		l-10.4,2.2c-4.2,0.9-6.2,2.2-6.2,5.7c0,3.2,2.6,5,6.2,5c6.7,0,10.5-3.4,10.5-9.2V75.3L126.7,75.3z"/>
	<path class="st1" d="M180.2,38.3v56.1h-9.5v-5.7c-2.3,4.4-6.5,6.7-11.9,6.7c-10.6,0-18.1-8-18.1-21s7.2-21,17.9-21
		c5.2,0,9.4,2,12,5.9v-21L180.2,38.3L180.2,38.3z M161.2,60.4c-7.5,0-10.1,4.6-10.1,13.9s2.2,14,9.9,14c6.6,0,9.9-4.9,9.9-13.9
		S168.4,60.4,161.2,60.4z"/>
	<path class="st1" d="M225.1,38.3v56.1h-9.5v-5.7c-2.3,4.4-6.5,6.7-11.9,6.7c-10.6,0-18.1-8-18.1-21s7.2-21,17.9-21
		c5.2,0,9.4,2,12,5.9v-21L225.1,38.3L225.1,38.3z M206.1,60.4c-7.5,0-10.1,4.6-10.1,13.9s2.2,14,9.9,14c6.6,0,9.9-4.9,9.9-13.9
		S213.2,60.4,206.1,60.4z"/>
	<path class="st1" d="M265.3,87.5c-3.2,5.2-8.5,7.8-15.9,7.8c-10.3,0-15.9-5.8-17-14.9l9.1-1.6c0.6,5.1,3,8.7,8.2,8.7
		c7.4,0,11.1-6.5,11.3-19.3c-2.9,4.7-7.1,7.4-12.8,7.4c-10.3,0-17.1-7.8-17.1-18.3c0-9.1,5.6-18.8,19.3-18.8
		c15.3,0,19.8,13.4,19.8,26.9C270.2,74.8,268.6,82.2,265.3,87.5L265.3,87.5z M250.5,46.5c-6.8,0-9.9,3.5-9.9,11.1
		c0,6.7,3,10.2,9.5,10.2c6.5,0,9.8-4.4,9.8-10.7S256.9,46.5,250.5,46.5L250.5,46.5z"/>
	<path class="st1" d="M314.2,64.5c-2.4,2.6-6.2,3.2-11.7,3.2h-12.4V35h12c2.4,0,4.5,0.2,6.4,0.7c3.7,0.8,6.4,3.3,6.4,8.2
		c0,3.2-1.6,5.8-4.3,7.1c3.7,1.3,5.6,3.8,5.6,7.7C316,61.2,315.4,63.1,314.2,64.5L314.2,64.5z M295.9,48.7h5.7
		c4.8,0,7.2-0.2,7.5-4.5c-0.2-4.2-2.7-4.4-7.4-4.5h-5.8L295.9,48.7L295.9,48.7z M309.2,55c-1.5-1.5-3.5-1.6-6.7-1.6h-6.6V63h6.4
		c5.4,0,7.8-0.3,8-4.7C310.3,56.8,310,55.7,309.2,55L309.2,55z"/>
	<path class="st1" d="M320,35h22.2v4.9h-16.4v8.9h14.6v4.8h-14.6v9.2h16.4v4.9H320V35L320,35z"/>
</g>
</svg>
