<?xml version="1.0" encoding="utf-8"?>
<!-- Generator: Adobe Illustrator 27.6.1, SVG Export Plug-In . SVG Version: 6.00 Build 0)  -->
<svg version="1.1" id="Layer_1" xmlns="http://www.w3.org/2000/svg" xmlns:xlink="http://www.w3.org/1999/xlink" x="0px" y="0px"
	 viewBox="0 0 419.6 130.4" style="enable-background:new 0 0 419.6 130.4;" xml:space="preserve">
<style type="text/css">
	.st0{fill:#0049FF;}
	.st1{fill:#F0FCE1;}
</style>
<g>
	<path class="st0" d="M59.4,129.4c-10.3,0-19.6-4.5-26-11.6C14.8,117,0,101.7,0,82.8v-9.1c0-7,2.1-13.9,6.1-19.7l24.2-35.4
		C36.8,9,47.6,3.3,59.2,3.3h9.5c19.3,0,35,15.7,35,35v15.2c4.5,5.9,7.2,13.3,7.2,21.3v8.1c0,9.3-3.6,17.7-9.5,23.9
		c-5,13.2-17.8,22.6-32.7,22.6L59.4,129.4L59.4,129.4z"/>
	<path class="st0" d="M115.6,129.4c-4.1,0-8.1-0.7-11.8-2c-3.7,1.3-7.7,2-11.8,2h-9.5c-19.3,0-35-15.7-35-35V38.3
		c0-19.3,15.7-35,35-35h11.3c4.1,0,8.1,0.7,11.8,2.1c3.7-1.3,7.7-2.1,11.9-2.1h9.5c19.3,0,35,15.7,35,35v56.1c0,19.3-15.7,35-35,35
		H115.6L115.6,129.4z"/>
	<path class="st0" d="M161.6,130.4c-36.8,0-62.5-26.3-62.5-64s26.3-64,62.5-64s62.5,26.9,62.5,64S197.8,130.4,161.6,130.4z"/>
	<path class="st0" d="M218.4,130.4c-19.9,0-32.6-7.3-39.8-13.4c-11.6-10-18-24.6-18-41.1V38.3c0-19.3,15.7-35,35-35h10
		c4.5,0,8.8,0.8,12.8,2.4c4-1.6,8.3-2.4,12.8-2.4h10c19.3,0,35,15.7,35,35v37.5C276.2,107.9,252.4,130.4,218.4,130.4z"/>
	<path class="st0" d="M284.5,129.4c-4.1,0-8.1-0.7-11.9-2.1c-3.7,1.4-7.7,2.1-11.9,2.1h-10c-19.3,0-35-15.7-35-35V38.3
		c0-19.3,15.7-35,35-35h10c4,0,7.9,0.7,11.5,1.9c3.7-1.3,7.5-1.9,11.5-1.9h12.7c14.1,0,26.8,8.4,32.2,21.4s2.7,27.9-7.1,38l-2.5,2.5
		l6.4,9.1c7.5,10.7,8.4,24.7,2.4,36.2s-18,18.8-31,18.8L284.5,129.4L284.5,129.4z"/>
	<path class="st0" d="M300,3.3h10c19.3,0,35,15.7,35,35v56.1c0,19.3-15.7,35-35,35h-10c-19.3,0-35-15.7-35-35V38.3
		C265,19,280.7,3.3,300,3.3z"/>
	<path class="st0" d="M332.4,102.7c-19.3,0-35-15.7-35-35V35c0-19.3,15.7-35,35-35h12c4.9,0,9.6,0.5,14,1.5
		C378.6,6,392.2,23,392.2,43.9c0,1.2,0,2.4-0.1,3.5c0.9,3.6,1.4,7.3,1.4,11.2c0,14.6-6.1,24.2-11.2,29.7
		c-13.3,14.4-31.4,14.4-37.3,14.4L332.4,102.7L332.4,102.7z"/>
	<path class="st0" d="M362.4,102.7c-19.3,0-35-15.7-35-35V35c0-19.3,15.7-35,35-35h22.2c19.3,0,35,15.7,35,35v4.9
		c0,3.8-0.6,7.5-1.7,10.9V52c1.1,3.4,1.7,7.1,1.7,10.9v4.9c0,19.3-15.7,35-35,35L362.4,102.7L362.4,102.7z"/>
</g>
<g>
	<path class="st1" d="M75.9,82.8h-7.2v11.5h-9.3V82.8H35v-9.1l24.2-35.4h9.5v36.5h7.2L75.9,82.8L75.9,82.8z M59.4,74.8V61.5
		c0-1.7,0.1-5.1,0.2-10.3c-1.7,3.2-4.3,7-5.7,9L49,67.4c-2.2,3.3-4,5.8-5.3,7.4c2.7-0.1,5.1-0.1,7.1-0.1
		C50.9,74.8,59.4,74.8,59.4,74.8z"/>
	<path class="st1" d="M82.5,38.3h11.3l16.7,29.4c3.4,6,5.8,10.8,7.4,14.4h0.1c-0.1-2.3-0.2-5.1-0.3-8.2c-0.1-3.1-0.1-5.5-0.1-7.2
		V38.3h9.5v56.1h-11.5L98.7,64.5c-3.2-5.7-5.5-10.3-7-13.7h-0.2c0.2,2.6,0.2,5.5,0.3,8.4c0.1,3,0.2,5.1,0.2,6.6v28.6h-9.5
		C82.5,94.4,82.5,38.3,82.5,38.3z"/>
	<path class="st1" d="M161.6,37.3c17.3,0,27.5,11.9,27.5,29s-10.2,29-27.5,29s-27.5-10.4-27.5-29C134.1,49.1,144.2,37.3,161.6,37.3z
		 M178.4,66.3c0-6.4-1.4-11.8-3.9-15.4c-2.6-3.7-6.8-5.5-12.5-5.5s-10.4,1.9-13.1,5.4c-2.6,3.2-4.1,9.1-4.1,15.5s1.4,12,3.8,15.2
		c2.8,3.8,7.5,5.8,13.1,5.8c5.9,0,10.2-1.8,12.8-5.6C177.1,78,178.4,72.8,178.4,66.3L178.4,66.3z"/>
	<path class="st1" d="M195.6,38.3h10v37.1c0,7.8,5.4,11.6,12.7,11.6s12.8-3.8,12.8-11.6V38.3h10v37.5c0,12.7-8,19.5-22.8,19.5
		s-22.8-6.8-22.8-19.6L195.6,38.3L195.6,38.3z"/>
	<path class="st1" d="M266.8,68.8l-6.1,6.2v19.4h-10V38.3h10v24.1l23-24.1h12.7l-22.7,23.3l23,32.8h-12.3L266.8,68.8z"/>
	<path class="st1" d="M300,38.3h10v56.1h-10V38.3z"/>
	<path class="st1" d="M356.5,64.5c-2.4,2.6-6.2,3.2-11.7,3.2h-12.4V35h12c2.4,0,4.5,0.2,6.4,0.7c3.7,0.8,6.4,3.3,6.4,8.2
		c0,3.2-1.6,5.8-4.3,7.1c3.7,1.3,5.6,3.8,5.6,7.7C358.4,61.2,357.8,63.1,356.5,64.5L356.5,64.5z M338.3,48.7h5.7
		c4.8,0,7.2-0.2,7.5-4.5c-0.2-4.2-2.7-4.4-7.4-4.5h-5.8L338.3,48.7L338.3,48.7z M351.6,55c-1.5-1.5-3.5-1.6-6.7-1.6h-6.6V63h6.4
		c5.4,0,7.8-0.3,8-4.7C352.7,56.8,352.4,55.7,351.6,55L351.6,55z"/>
	<path class="st1" d="M362.4,35h22.2v4.9h-16.4v8.9h14.6v4.8h-14.6v9.2h16.4v4.9h-22.2V35L362.4,35z"/>
</g>
</svg>
