<?xml version="1.0" encoding="utf-8"?>
<!-- Generator: Adobe Illustrator 27.6.1, SVG Export Plug-In . SVG Version: 6.00 Build 0)  -->
<svg version="1.1" id="Layer_3" xmlns="http://www.w3.org/2000/svg" xmlns:xlink="http://www.w3.org/1999/xlink" x="0px" y="0px"
	 viewBox="0 0 303 126.8" style="enable-background:new 0 0 303 126.8;" xml:space="preserve">
<style type="text/css">
	.st0{fill:#FF380E;}
	.st1{fill:#F0FCE1;}
</style>
<path class="st0" d="M299.2,52.4c0.6-2.7,1-5.4,1-8.3V36c0-19.3-15.7-35-35-35H235c-3.6,0-7.1,0.6-10.4,1.6
	C219.3,0.9,213.7,0,207.8,0c-9.3,0-18,2-25.7,5.8C176.9,2.7,170.8,1,164.3,1h-8c-3.5,0-6.9,0.5-10.2,1.5c-3.2-1-6.7-1.5-10.2-1.5h-8
	c-6.7,0-13,1.9-18.3,5.2C102.1,2.2,93.3,0,83.7,0c-5.6,0-11,0.8-16.2,2.3c-3-0.9-6.2-1.3-9.6-1.3h-8C39.5,1,30,5.5,23.5,12.9
	C15,15.9,7.9,22,3.7,30.3l-0.1,0.2C1.2,35.3,0,40.7,0,46.1v8c0,5.4,1.3,10.8,3.7,15.6L3.8,70c2.3,4.7,5.7,8.7,9.7,11.9v9
	c0,19.3,15.7,35,35,35H58c3.2,0,6.4-0.5,9.4-1.3c5.1,1.5,10.6,2.2,16.4,2.2c5.7,0,11-0.7,16-2c2.8,0.7,5.7,1.1,8.6,1.1h10.4
	c1.3,0,2.6-0.1,3.8-0.2c1.3,0.1,2.5,0.2,3.8,0.2l0,0h9.5c3.3,0,6.5-0.5,9.5-1.3c3,0.8,6.2,1.3,9.4,1.3l0,0h9.5c1.4,0,2.7-0.1,4-0.2
	c1.3,0.1,2.6,0.2,4,0.2h10.4c0.7,0,1.4,0,2-0.1c0.7,0,1.4,0.1,2,0.1H225c2.8,0,5.5-0.3,8.1-1c4.7,1.2,9.7,1.9,14.9,1.9l0,0
	c31.2,0,54.8-23.1,54.8-53.7C303,65.7,301.6,58.7,299.2,52.4z"/>
<g>
	<path class="st1" d="M57.9,36v54.9h-9.5V51c-2.3,2.5-6.4,3.5-11.1,3.5c-0.6,0-1.8-0.1-2.2-0.2L35,54.2v-8l0.1-0.2
		c8.7,0,13.5-3,14.8-10H57.9L57.9,36z"/>
	<path class="st1" d="M83.7,91.8c-12.2,0-19-7.4-19.2-18l9.6-1.4c0,7.2,3.5,11.6,9.6,11.6s9.7-3.3,9.7-9.1s-4.1-8.6-9.3-8.6H79V58
		h4.1c4.2,0,8.2-2.2,8.2-7.5c0-4.7-2.7-7.7-7.6-7.7c-3.3,0-5.5,1-6.8,3.1c-1.3,2-1.8,4.4-1.8,7.1l-9.9-1.4
		C65.8,41.5,73.1,35,83.7,35c9.9,0,17.4,5.5,17.4,15.4c0,4.7-2.6,8.7-7,11c5.8,1.9,9.1,7.3,9.1,13.5C103.2,85.9,95.2,91.8,83.7,91.8
		L83.7,91.8z"/>
	<path class="st1" d="M108.4,80h10.4v10.8h-10.4V80z"/>
	<path class="st1" d="M136,36v54.9h-9.5V51c-2.3,2.5-6.4,3.5-11.1,3.5c-0.6,0-1.8-0.1-2.2-0.2l-0.1-0.2v-8l0.1-0.2
		c8.7,0,13.5-3,14.8-10L136,36L136,36z"/>
	<path class="st1" d="M164.3,36v54.9h-9.5V51c-2.3,2.5-6.4,3.5-11.1,3.5c-0.6,0-1.8-0.1-2.2-0.2l-0.1-0.2v-8l0.1-0.2
		c8.7,0,13.5-3,14.8-10L164.3,36L164.3,36z"/>
	<path class="st1" d="M172.4,80h10.4v10.8h-10.4V80z"/>
	<path class="st1" d="M225.2,82.7v8.2h-38.3c0.6-13.1,6.7-19.6,16.4-25.7l1.5-1c2.4-1.5,4.3-2.8,5.7-3.8c2.8-2.2,4.8-5.1,4.8-9.1
		c0-5.1-2.6-8.3-7.8-8.3c-3.4,0-5.8,1.1-7,3.3s-1.8,4.7-1.7,7.8l-9.9-1.5c-0.2-9,5.4-17.5,18.9-17.5c10.4,0,17.2,6.2,17.2,16.5
		c-0.2,9.4-4.9,13.5-14.1,19.3c-2.6,1.5-4.6,2.9-6.2,3.9c-2.9,2-5.3,4.7-6.2,7.9H225.2L225.2,82.7z"/>
	<path class="st1" d="M248.2,91.8c-10.9,0-18.6-6.6-18.8-17.5l9.5-1.4c0,7.1,3.9,11.2,9.5,11.2c6.6,0,10.1-4.1,10.1-11.2
		c0-6.5-3.8-9.9-10.1-9.9c-3.9,0-7.1,1.4-9.1,4.1l-8.6-1.4l4.2-29.7h30.2v8.2h-22.3l-2.1,14.3c2.5-2.5,5.8-3.7,9.9-3.7
		c9.1,0,17.3,6,17.3,18.4C268,83.7,261.1,91.8,248.2,91.8L248.2,91.8z"/>
</g>
</svg>
