<?xml version="1.0" encoding="utf-8"?>
<!-- Generator: Adobe Illustrator 27.6.1, SVG Export Plug-In . SVG Version: 6.00 Build 0)  -->
<svg version="1.1" id="Layer_3" xmlns="http://www.w3.org/2000/svg" xmlns:xlink="http://www.w3.org/1999/xlink" x="0px" y="0px"
	 viewBox="0 0 474.2 145.8" style="enable-background:new 0 0 474.2 145.8;" xml:space="preserve">
<style type="text/css">
	.st0{fill:#FF380E;}
	.st1{fill:#F0FCE1;}
</style>
<path class="st0" d="M474.2,39.9V35c0-19.3-15.7-35-35-35H417c-1,0-2,0.1-2.9,0.1c-1-0.1-1.9-0.1-2.9-0.1h-5.8
	c-14,0-26.1,8.3-31.7,20.2c-0.6,0.1-1.2,0.3-1.8,0.5c-0.7-0.2-1.5-0.4-2.2-0.5c-6.4-7.3-15.8-11.9-26.3-11.9h-9.3
	c-9.6,0-18.3,3.9-24.7,10.2c-0.2,0-0.3,0-0.5,0c-6.6,0-12.8,1.1-18.5,3c-5.3-1.8-11.5-3-19-3s-14.5,1.1-20.7,3.2
	c-5.7-2.1-12-3.2-18.8-3.2c-3.5,0-7,0.4-10.3,1c-0.6,0-1.2,0-1.8,0h-9.4c-0.2,0-0.4,0-0.6,0c-6.2-9.6-17.1-16-29.4-16h-9.5
	c-9.3,0-17.8,3.6-24,9.6c-6.3-6.2-15-10-24.5-10h-9.5c-8.9,0-17,3.3-23.1,8.7c-4.7-2.9-9.9-5-15.6-6.3s-12-2-18.5-2H35
	C15.7,3.3,0,19,0,38.3v56.1c0,19.3,15.7,35,35,35l0,0h21.3c4.2,0,10.9,0,18.4-1.6c3.3,1.1,6.9,1.6,10.6,1.6h9.5c3.1,0,6.1-0.4,9-1.2
	c2.9,0.8,5.9,1.2,9,1.2h9.5c3.2,0,6.4-0.4,9.3-1.3c5.1,1.4,10.6,2.2,16.4,2.2c5.1,0,10.1-0.7,14.8-1.9c2.6,0.6,5.3,0.9,8.1,0.9h9.5
	c2.8,0,5.5-0.3,8.1-0.9c2.6,0.6,5.3,0.9,8,0.9l0,0h11c0.4,0,0.7,0,1.1,0c0.6,0,1.2,0,1.8,0h9.5c2.9,0,5.8-0.4,8.5-1
	c2.7,0.7,5.6,1,8.5,1l0,0h9.6c2.2,0,4.3-0.2,6.3-0.6c4.1,1,8.4,1.6,13,1.6l0,0c3.8,0,7.4-0.4,10.9-1.1c0.9,0.1,1.8,0.1,2.7,0.1h9.5
	c2.3,0,4.6-0.2,6.8-0.7c4.5,1,9.2,1.6,14.1,1.6l0,0c5.8,0,11.2-0.7,16.3-2c4.2,6.8,10.7,12.1,18.7,14.8c7.2,2.4,14,2.8,17.4,2.8l0,0
	c15.9,0,26.5-7,32.5-12.9c8-7.7,11.9-17.1,14.1-23.5l2.4-6.7h0.1c1,0,2-0.1,2.9-0.1c1,0.1,1.9,0.1,2.9,0.1l0,0h22.2
	c19.3,0,35-15.7,35-35v-4.9c0-3.8-0.6-7.5-1.7-10.9v-1.2C473.6,47.3,474.2,43.7,474.2,39.9z"/>
<g>
	<path class="st1" d="M76.3,88.9c-4.2,4.5-10.7,5.5-20,5.5H35V38.3h20.5c4.2,0,7.8,0.4,10.9,1.1c6.3,1.4,11,5.7,11,14.1
		c0,5.5-2.7,9.9-7.4,12.1c6.3,2.3,9.6,6.5,9.6,13.2C79.6,83.2,78.5,86.5,76.3,88.9L76.3,88.9z M45,61.8h9.8
		c8.2-0.1,12.4-0.3,12.8-7.7c-0.4-7.2-4.7-7.6-12.7-7.7H45V61.8L45,61.8z M67.9,72.6c-2.6-2.5-5.9-2.8-11.5-2.8H45v16.6h11
		c9.2-0.1,13.3-0.5,13.8-8C69.8,75.7,69.1,73.8,67.9,72.6L67.9,72.6z"/>
	<path class="st1" d="M109.3,53.4l-0.2,8.7c-0.6-0.1-1.2-0.1-1.9-0.1c-8,0-12.3,3.2-12.3,14.1v18.3h-9.5V54.3h9.4v7.2
		c1.4-4.9,6.2-7.9,12.8-8.2L109.3,53.4L109.3,53.4z"/>
	<path class="st1" d="M112.8,37.8h9.5v10.3h-9.5V37.8z M112.8,54.3h9.5v40.1h-9.5V54.3z"/>
	<path class="st1" d="M148,53.4c10.2,0,16.3,5.5,17.9,14.2l-9,1.6c-1-5.4-3.5-8.6-9-8.6c-7.9,0-9.9,4.9-9.9,13.8s2.1,13.8,9.9,13.8
		c5.1,0,7.8-2.4,9.1-7.4l9.1,1c-1.4,8.2-8.3,13.7-18.2,13.7c-12.7,0-20.3-7.8-20.3-21C127.7,61.9,135.3,53.3,148,53.4L148,53.4z"/>
	<path class="st1" d="M184.7,75.3l-4.4,4.2v14.9h-9.5V38.3h9.5V69l14.3-14.7h12.3l-15.7,14.9l16.3,25.2h-11L184.7,75.3L184.7,75.3z"
		/>
	<path class="st1" d="M246.3,94.4h-9.6V70.9c0-4.4-0.3-6.3-2.2-8.2c-1.6-1.6-3.4-1.9-6-1.9c-4,0-8.7,2.4-8.7,11.6v22h-9.5V54.3h9.4
		v6c2-4.7,6.2-7,12.1-7c5.1,0,8.4,1.3,11.2,4.1c2.8,2.9,3.4,6.9,3.4,12.7L246.3,94.4L246.3,94.4z"/>
	<path class="st1" d="M266.3,70.9l11.9-2.2c0-3.1-0.2-4.6-1.2-6.1s-3.1-2.2-6.4-2.2c-5.5,0-8.1,2.1-8.1,7.4l-9.3-1.2
		c0.2-4.7,1.9-8,5-10.2c3-2.1,7.4-3.1,13.1-3.1c10.3,0,16.1,4.6,16.1,13.2v20.6c0,2.5,0.5,4.7,1.4,6.9v0.3h-9.5
		c-0.4-1.8-0.6-3.7-0.6-5.7c-2.2,4.2-6.6,6.7-13.1,6.7c-7.5,0-13.9-4-13.9-12S258,72.4,266.3,70.9L266.3,70.9z M278.2,75.3
		l-10.4,2.2c-4.2,0.9-6.2,2.2-6.2,5.7c0,3.2,2.6,5,6.2,5c6.7,0,10.5-3.4,10.5-9.2v-3.7H278.2z"/>
	<path class="st1" d="M300.7,80.6c0.1,5.1,3.5,7.9,9,7.9s8.2-1.8,8.2-5.3c-0.4-3.1-2.5-3.6-8.6-5.1l-2.4-0.6
		c-8.4-2.2-13.6-4.2-13.9-12.2c0-8.2,7.4-12,15.8-12c9.6,0,16.2,3.8,17.1,12.7l-8.7,1.4c-0.2-4.9-3.2-7.4-8.3-7.4
		c-3.9,0-6.8,1.6-6.8,4.5s3.1,4,8.8,5.2c3.6,0.7,6.4,1.5,8.4,2.2c4.2,1.5,7.7,4.7,7.7,10.6c0,4.5-1.6,7.7-4.9,9.7s-7.4,3-12.3,3
		c-9.8,0-17.5-4.3-17.8-13.7L300.7,80.6L300.7,80.6z"/>
	<path class="st1" d="M333.9,61.9h-5.8v-7.6h5.8V43.2h9.3v11.1h8.2v7.6h-8.2v21.6c0,2.3,1.3,3,4.2,3c1,0,2.2-0.2,3.7-0.4l0.2,8.2
		c-1.6,0.3-3.4,0.5-5.3,0.5c-7.9,0-12.1-3.1-12.1-10.4L333.9,61.9L333.9,61.9z"/>
	<path class="st1" d="M391.1,54.3l-15.5,43.4c-3.3,9.5-6.8,13.1-13.6,13.1c-1.9,0-4.4-0.3-6.3-1l0.2-8.4c1.9,0.6,3.5,0.9,4.8,0.9
		c3.5,0,4.7-1.8,6.7-7.9l-15.5-40.1h10.3l6.5,19.4c0.7,1.8,1.8,5.3,3.1,10.2c1-3.7,2.2-7.2,3.3-10.6l6.2-19L391.1,54.3L391.1,54.3z"
		/>
	<path class="st1" d="M405.3,35h5.8v32.7h-5.8V35z"/>
	<path class="st1" d="M417,35h22.2v4.9h-16.4v8.9h14.6v4.8h-14.6v9.2h16.4v4.9H417V35L417,35z"/>
</g>
</svg>
