<?xml version="1.0" encoding="utf-8"?>
<!-- Generator: Adobe Illustrator 27.6.1, SVG Export Plug-In . SVG Version: 6.00 Build 0)  -->
<svg version="1.1" id="Layer_1" xmlns="http://www.w3.org/2000/svg" xmlns:xlink="http://www.w3.org/1999/xlink" x="0px" y="0px"
	 viewBox="0 0 362 145.8" style="enable-background:new 0 0 362 145.8;" xml:space="preserve">
<style type="text/css">
	.st0{fill:#F0FCE1;}
	.st1{fill:#FF380E;}
</style>
<g>
	<path class="st0" d="M281.2,103.3L281.2,103.3L281.2,103.3z"/>
	<path class="st0" d="M357.8,51.2c4.7-9.1,5.3-20,1.2-29.8C353.6,8.4,340.9,0,326.8,0h-7.4c-2.3,0-4.5,0.2-6.7,0.6
		C310.5,0.2,308.3,0,306,0h-5.8c-0.9,0-1.9,0-2.8,0.1c-1-0.1-1.9-0.1-2.8-0.1h-5.8c-2.6,0-5.1,0.3-7.5,0.8c-2.4-0.5-4.9-0.8-7.5-0.8
		H268c-13.5,0-25.2,7.7-31.1,18.9c-1.7-0.2-3.3-0.4-5.1-0.5C225.5,9.3,215,3.3,203,3.3h-9.5c-11.9,0-22.5,6-28.8,15.1
		c-0.2,0-0.3,0-0.5,0c-7,0-13.8,1.3-20,3.9c-6.4-2.5-13.4-3.9-20.6-3.9c-3.6,0-7.2,0.3-10.6,0.9c-2.6-0.6-5.2-0.9-7.9-0.9h-1.8
		c-0.4,0-0.8,0-1.3,0c-3.1,0.1-6,0.5-8.9,1c-0.9-0.1-1.8-0.1-2.6-0.1h-9.4c-3.3,0-6.5,0.5-9.5,1.3c-5.1-1.5-10.6-2.3-16.3-2.3
		C23.9,18.4,0,41.9,0,74.4s23.3,56,55.5,56l0,0c5.7,0,11.2-0.8,16.3-2.3c3,0.9,6.2,1.3,9.5,1.3l0,0h9.5c4.6,0,9-0.9,13-2.5
		c6.2,2.3,13,3.5,20,3.5l0,0c1,0,2,0,3.1-0.1c9.5,9.8,23.4,15.6,39.7,15.6c16.8,0,31.2-6.3,40.9-16.7c1.7-0.2,3.3-0.5,4.9-1
		c5.2,1.5,10.7,2.2,16.5,2.2c21,0,38.6-10.7,48-27.3c1.4,0.1,2.9,0.2,4.3,0.2c4.2,0,8.1-0.4,11.9-1.3c2.3,0.5,4.6,0.7,7,0.7h5.8
		c2.4,0,4.7-0.2,7-0.7c2.2,0.4,4.6,0.7,6.9,0.7l0,0h7.2c13,0,25-7.3,31-18.9C363.4,73.5,363.3,61.3,357.8,51.2z"/>
</g>
<g>
	<path class="st1" d="M55.5,53.4c12.4,0,20.4,8.8,20.4,21s-8.1,21-20.4,21s-20.5-8-20.5-21C35,62.1,42.9,53.4,55.5,53.4z M55.5,60.3
		c-7.4,0-10.3,4.3-10.3,14s2.9,14,10.3,14s10.3-4.3,10.3-14S62.6,60.3,55.5,60.3z"/>
	<path class="st1" d="M105.3,53.4L105,62c-0.6-0.1-1.2-0.1-1.9-0.1c-8,0-12.3,3.2-12.3,14.1v18.3h-9.5v-40h9.4v7.2
		c1.4-4.9,6.2-7.9,12.8-8.2L105.3,53.4L105.3,53.4z"/>
	<path class="st1" d="M143.4,77h-29.8c0.2,7.4,3.5,11.2,10.2,11.2c5.8,0,8.9-2.5,9.8-7.4l9.2,0.7c-2,9.1-8.7,13.8-18.9,13.8
		c-6,0-10.9-1.8-14.5-5.5c-3.6-3.6-5.4-8.8-5.4-15.6c0-6.3,1.8-11.5,5.4-15.3s8.4-5.6,14.4-5.6c6.3,0,11.6,2.4,15.1,6.7
		c3,3.8,4.6,9.3,4.6,15.7L143.4,77L143.4,77z M113.6,69.9h20c-0.1-2.3-1-4.7-2.2-6.2c-1.8-2.2-4.2-3.1-7.7-3.1
		c-3.8,0-6.4,1.2-8.1,3.5C114.5,65.5,113.9,67.6,113.6,69.9L113.6,69.9z"/>
	<path class="st1" d="M185.9,54.3v39.3c0,10.8-7.4,17.2-19.3,17.2c-9.7,0-17.5-3.9-17.9-13.5l9.2-0.6c0.3,5.1,3.4,7.1,9.1,7.1
		c6.2,0,9.5-3.4,9.5-10.1v-6.2c-2.6,4.3-6.6,6.5-11.9,6.5c-10.8,0-18-8.2-18-20.8c0-11.8,7.4-20,17.8-20c5.4,0,9.5,2.2,12.1,6.2
		v-5.2L185.9,54.3L185.9,54.3z M166.9,60.4c-7.1,0-10,4.2-10,12.9c0,9.4,2.5,13.7,9.9,13.7s10-5.4,10-13.7S173.4,60.4,166.9,60.4z"
		/>
	<path class="st1" d="M193.6,38.3h9.5v56.1h-9.5V38.3z"/>
	<path class="st1" d="M228.9,53.4c12.4,0,20.4,8.8,20.4,21s-8.1,21-20.4,21s-20.5-7.9-20.5-21C208.4,62.1,216.3,53.4,228.9,53.4z
		 M228.9,60.3c-7.4,0-10.3,4.3-10.3,14s2.9,14,10.3,14s10.3-4.3,10.3-14S236.1,60.3,228.9,60.3z"/>
	<path class="st1" d="M268,35h5.8v21.6c0,4.5,3.2,6.8,7.4,6.8s7.5-2.2,7.5-6.8V35h5.8v21.9c0,7.4-4.7,11.4-13.3,11.4
		s-13.3-4-13.3-11.4V35H268z"/>
	<path class="st1" d="M309.5,52.8l-3.5,3.6v11.3h-5.8V35h5.8v14l13.4-14h7.4l-13.2,13.6L327,67.7h-7.1L309.5,52.8L309.5,52.8z"/>
</g>
</svg>
