<?xml version="1.0" encoding="utf-8"?>
<!-- Generator: Adobe Illustrator 27.6.1, SVG Export Plug-In . SVG Version: 6.00 Build 0)  -->
<svg version="1.1" id="Layer_1" xmlns="http://www.w3.org/2000/svg" xmlns:xlink="http://www.w3.org/1999/xlink" x="0px" y="0px"
	 viewBox="0 0 302.6 126.8" style="enable-background:new 0 0 302.6 126.8;" xml:space="preserve">
<style type="text/css">
	.st0{fill:#F0FCE1;}
	.st1{fill:#FF380E;}
</style>
<path class="st0" d="M298.8,52.4c0.6-2.7,1-5.4,1-8.3V36c0-19.3-15.7-35-35-35h-30.2c-3.6,0-7.1,0.6-10.4,1.6
	C219,0.9,213.4,0,207.5,0c-9.3,0-18,2-25.7,5.8C176.6,2.8,170.5,1,164,1h-8c-3.5,0-6.9,0.5-10.2,1.5c-3.2-1-6.6-1.5-10.2-1.5h-8
	C122,1,116.7,2.3,112,4.7C107.3,2.3,102,1,96.4,1h-9.3C82,1,77,2.1,72.5,4.1C68.1,2.1,63.1,1,57.9,1h-8C39.5,1,30,5.5,23.5,13
	C15,16,7.9,22.1,3.7,30.4l-0.1,0.2C1.2,35.4,0,40.7,0,46.1v8C0,59.6,1.3,65,3.7,69.8L3.8,70c2.3,4.7,5.7,8.7,9.7,11.9v9
	c0,19.3,15.7,35,35,35H58c5.3,0,10.2-1.2,14.7-3.2c4.5,2.1,9.5,3.2,14.7,3.2l0,0h9.1c2,0,3.9-0.2,5.8-0.5c1.9,0.3,3.9,0.5,5.9,0.5
	h10.4c1.3,0,2.6-0.1,3.8-0.2c1.3,0.1,2.5,0.2,3.8,0.2l0,0h9.5c3.3,0,6.5-0.5,9.5-1.3c3,0.8,6.2,1.3,9.4,1.3l0,0h9.5
	c1.4,0,2.8-0.1,4.1-0.2c1.3,0.1,2.6,0.2,3.9,0.2h10.4c0.7,0,1.4,0,2-0.1c0.7,0,1.4,0.1,2,0.1l0,0h38.3c2.8,0,5.5-0.3,8.2-1
	c4.7,1.2,9.7,1.9,14.8,1.9l0,0c31.2,0,54.8-23.1,54.8-53.7C302.6,65.7,301.3,58.7,298.8,52.4z"/>
<g>
	<path class="st1" d="M57.9,36v54.9h-9.5V51c-2.3,2.5-6.4,3.5-11.1,3.5c-0.6,0-1.8-0.1-2.2-0.2L35,54.2v-8l0.1-0.2
		c8.7,0,13.5-3,14.8-10H57.9L57.9,36z"/>
	<path class="st1" d="M103.5,79.6h-7.1v11.3h-9.1V79.6h-24v-9L87.1,36h9.3v35.7h7.1V79.6L103.5,79.6z M87.3,71.6v-13
		c0-1.7,0.1-5,0.2-10.1c-1.7,3-4.1,6.8-5.6,8.8l-4.8,7.1L72,71.8c2.6-0.1,5-0.2,7-0.2C78.9,71.6,87.3,71.6,87.3,71.6z"/>
	<path class="st1" d="M108.1,80h10.4v10.8h-10.4V80z"/>
	<path class="st1" d="M135.6,36v54.9h-9.5V51c-2.3,2.5-6.4,3.5-11.1,3.5c-0.6,0-1.8-0.1-2.2-0.2l-0.1-0.2v-8l0.1-0.2
		c8.7,0,13.5-3,14.8-10L135.6,36L135.6,36z"/>
	<path class="st1" d="M164,36v54.9h-9.5V51c-2.3,2.5-6.4,3.5-11.1,3.5c-0.6,0-1.8-0.1-2.2-0.2l-0.1-0.2v-8l0.1-0.2
		c8.7,0,13.5-3,14.8-10L164,36L164,36z"/>
	<path class="st1" d="M172,80h10.4v10.8H172V80z"/>
	<path class="st1" d="M224.9,82.7v8.2h-38.3c0.6-13.1,6.7-19.6,16.4-25.7l1.5-1c2.4-1.5,4.3-2.8,5.7-3.8c2.8-2.2,4.8-5.1,4.8-9.1
		c0-5.1-2.6-8.3-7.8-8.3c-3.4,0-5.8,1.1-7,3.3s-1.8,4.7-1.7,7.8l-9.9-1.5c-0.2-9,5.4-17.5,18.9-17.5c10.4,0,17.2,6.2,17.2,16.5
		c-0.2,9.4-4.9,13.5-14.1,19.3c-2.6,1.5-4.6,2.9-6.2,3.9c-2.9,2-5.3,4.7-6.2,7.9H224.9L224.9,82.7z"/>
	<path class="st1" d="M247.8,91.8c-10.9,0-18.6-6.6-18.8-17.5l9.5-1.4c0,7.1,3.9,11.2,9.5,11.2c6.6,0,10.1-4.1,10.1-11.2
		c0-6.5-3.8-9.9-10.1-9.9c-3.9,0-7.1,1.4-9.1,4.1l-8.6-1.4l4.2-29.7h30.2v8.2h-22.3l-2.1,14.3c2.5-2.5,5.8-3.7,9.9-3.7
		c9.1,0,17.3,6,17.3,18.4C267.6,83.7,260.8,91.8,247.8,91.8L247.8,91.8z"/>
</g>
</svg>
