<?xml version="1.0" encoding="utf-8"?>
<!-- Generator: Adobe Illustrator 27.6.1, SVG Export Plug-In . SVG Version: 6.00 Build 0)  -->
<svg version="1.1" id="Layer_3" xmlns="http://www.w3.org/2000/svg" xmlns:xlink="http://www.w3.org/1999/xlink" x="0px" y="0px"
	 viewBox="0 0 424.4 130.4" style="enable-background:new 0 0 424.4 130.4;" xml:space="preserve">
<style type="text/css">
	.st0{fill:#FF380E;}
	.st1{fill:#F0FCE1;}
</style>
<g>
	<path class="st0" d="M343.7,103.3L343.7,103.3L343.7,103.3z"/>
	<path class="st0" d="M420.3,51.2c4.7-9.1,5.3-20,1.2-29.8C416,8.4,403.3,0,389.2,0h-7.4c-2.3,0-4.5,0.2-6.7,0.6
		c-2.2-0.4-4.4-0.6-6.7-0.6h-5.8c-0.9,0-1.9,0-2.8,0.1C358.8,0,357.9,0,357,0h-5.8c-2.6,0-5.1,0.3-7.5,0.8c-2.4-0.5-4.9-0.8-7.5-0.8
		h-5.8c-13.4,0-25,7.5-30.9,18.5c-1.4-0.1-2.9-0.2-4.3-0.2c-3.5,0-7,0.3-10.3,1c-0.6,0-1.2,0-1.8,0h-9.4c-3.2,0-6.3,0.4-9.3,1.3
		c-5-1.5-10.3-2.2-15.8-2.2c-4.6,0-9,0.5-13.2,1.4c-1.9-0.3-3.8-0.5-5.7-0.5h-10c-3.3,0-6.5,0.5-9.5,1.3c-3-0.9-6.2-1.3-9.5-1.3
		h-9.1c-6.2-9.6-17.1-16-29.4-16h-9.4c-6.5,0-12.6,1.8-17.8,4.9h-4.7c-10.4,0-19.8,4.5-26.2,11.8c-0.7,0.1-1.3,0.3-1.9,0.4
		c-0.7-0.2-1.5-0.3-2.2-0.5c-3.6-3.9-7.4-6.6-10.4-8.5c-11.8-7.1-24.2-8-33.8-8.1c-0.1,0-20.8,0-20.8,0C15.7,3.3,0,19,0,38.3v56.1
		c0,19.3,15.7,35,35,35h10c4.2,0,8.2-0.7,12-2.1c3.8,1.4,7.8,2.1,11.9,2.1l0,0h10.8c2.1,0,4.2-0.2,6.2-0.6c3.9,1,8.3,1.5,13.1,1.5
		l0,0c3.5,0,6.9-0.3,10.2-1c0.5,0,1,0,1.6,0h9.3c3.1,0,6.1-0.4,8.9-1.2c4.2,1,8.7,1.6,13.4,1.6l0,0c2.7,0,5.3-0.2,7.9-0.5
		c0.8,0.1,1.7,0.1,2.5,0.1h9.5c2.9,0,5.8-0.4,8.5-1c2.7,0.7,5.6,1,8.5,1l0,0h9.5c2.7,0,5.4-0.3,8-0.9c2.6,0.6,5.3,0.9,8,0.9l0,0
		h10.5c4.6,0,9.1-0.9,13.2-2.6c6.3,2.3,13,3.5,20.1,3.5l0,0c5.6,0,11-0.7,16.1-2.1c2.9,0.8,5.8,1.2,8.9,1.2h9.5c2.9,0,5.8-0.4,8.5-1
		c2.7,0.7,5.6,1,8.5,1l0,0h9.6c16.3,0,29.9-11.1,33.9-26.1l0,0c4.2,0,8.1-0.4,11.9-1.3c2.3,0.5,4.6,0.7,7,0.7h5.8
		c2.4,0,4.7-0.2,7-0.7c2.2,0.5,4.6,0.7,6.9,0.7l0,0h7.1c13,0,25-7.3,31-18.8C425.8,73.5,425.7,61.3,420.3,51.2z"/>
</g>
<g>
	<path class="st1" d="M79.7,94.4H68.9c-1.8-3.1-2.2-5.2-2.2-12.8c0-6.8-3-9.3-11-9.3H45v22.1H35V38.3h20.6
		C68.3,38.4,77.7,40.9,78,55c0,6.7-3.4,11.6-8.8,13.9c5.2,1.9,7.4,5.8,7.4,12s0.6,9.8,3.2,13.2L79.7,94.4L79.7,94.4z M55,46.4H45
		v17.9h10c7.7,0,13.1-1.2,13.1-8.8C67.8,47.1,63,46.5,55,46.4L55,46.4z"/>
	<path class="st1" d="M120,54.3v40.1h-9.3v-5.9c-2.2,4.5-6.2,6.9-11.8,6.9c-5.1,0-8.7-1.4-11.5-4.4c-2.9-3-3.4-7.1-3.4-13.1V54.3
		h9.7v23c0,4.6,0.3,6.7,2,8.5s3.4,2.1,6.3,2.1c2.3,0,4.4-0.8,6.1-2.5s2.6-4.7,2.6-9V54.3H120L120,54.3z"/>
	<path class="st1" d="M130.3,61.9h-5.8v-7.6h5.8V43.2h9.3v11.1h8.2v7.6h-8.2v21.6c0,2.3,1.3,3,4.2,3c1,0,2.2-0.2,3.7-0.4l0.2,8.2
		c-1.6,0.3-3.4,0.5-5.3,0.5c-7.9,0-12.1-3.1-12.1-10.4L130.3,61.9L130.3,61.9z"/>
	<path class="st1" d="M188.9,94.4h-9.5V70.7c0-4.2-0.3-6-2.2-7.8c-1.6-1.7-3.4-2-6.1-2c-4,0-8.7,2.3-8.7,11.3v22.3h-9.5V38.3h9.4v22
		c2.2-4.6,6.5-6.9,11.9-6.9s8.6,1.3,11.5,4.2c2.8,2.9,3.3,6.6,3.3,12.6L188.9,94.4L188.9,94.4z"/>
	<path class="st1" d="M190.6,54.3h10.2l5.9,19c1.3,4.2,2.5,8.2,3.5,12.3l1.9-6.5l1.7-5.8l6-19h10l-14.3,40.1H205L190.6,54.3
		L190.6,54.3z"/>
	<path class="st1" d="M268.3,77h-29.8c0.2,7.4,3.5,11.2,10.2,11.2c5.8,0,8.9-2.5,9.8-7.4l9.2,0.7c-2,9.1-8.7,13.8-18.9,13.8
		c-6,0-10.9-1.8-14.5-5.5c-3.6-3.6-5.4-8.8-5.4-15.6c0-6.3,1.8-11.5,5.4-15.3c3.6-3.8,8.4-5.6,14.4-5.6c6.3,0,11.6,2.4,15.1,6.7
		c3,3.8,4.6,9.3,4.6,15.7L268.3,77L268.3,77z M238.6,69.9h20c-0.1-2.3-1-4.7-2.2-6.2c-1.8-2.2-4.2-3.1-7.7-3.1
		c-3.8,0-6.4,1.2-8.1,3.5C239.4,65.5,238.8,67.6,238.6,69.9L238.6,69.9z"/>
	<path class="st1" d="M309.8,94.4h-9.6V70.9c0-4.4-0.3-6.3-2.2-8.2c-1.6-1.6-3.4-1.9-6-1.9c-4,0-8.7,2.4-8.7,11.6v22h-9.5V54.3h9.4
		v6c2-4.7,6.2-7,12.1-7c5,0,8.4,1.3,11.2,4.1c2.8,2.9,3.4,6.9,3.4,12.7L309.8,94.4L309.8,94.4z"/>
	<path class="st1" d="M330.4,35h5.8v21.6c0,4.5,3.2,6.8,7.4,6.8s7.5-2.2,7.5-6.8V35h5.8v21.9c0,7.4-4.7,11.4-13.3,11.4
		s-13.3-4-13.3-11.4V35H330.4z"/>
	<path class="st1" d="M371.9,52.8l-3.5,3.6v11.3h-5.8V35h5.8v14l13.4-14h7.4L376,48.6l13.4,19.1h-7.1L371.9,52.8L371.9,52.8z"/>
</g>
</svg>
