<?xml version="1.0" encoding="UTF-8"?>
<svg id="Layer_1" data-name="Layer 1" xmlns="http://www.w3.org/2000/svg" viewBox="0 0 350 349">
  <defs>
    <style>
      .cls-1 {
        fill: #e5e5e5;
      }
    </style>
  </defs>
  <path class="cls-1" d="m50,0C22.42,0,0,22.36,0,49.86v249.29c0,27.5,22.42,49.86,50,49.86h76.72v-113.58h-41.25v-60.92h41.25v-26.25c0-67.85,30.78-99.32,97.66-99.32,12.66,0,34.53,2.49,43.52,4.99v55.16c-4.69-.47-12.89-.78-23.12-.78-32.81,0-45.47,12.39-45.47,44.56v21.66h65.31l-11.25,60.92h-54.14v113.58h100.78c27.58,0,50-22.36,50-49.86V49.86c0-27.5-22.42-49.86-50-49.86H50Z"/>
</svg>