<?xml version="1.0" encoding="UTF-8"?>
<svg id="Layer_1" data-name="Layer 1" xmlns="http://www.w3.org/2000/svg" viewBox="0 0 350 349">
  <defs>
    <style>
      .cls-1 {
        fill: #e5e5e5;
      }
    </style>
  </defs>
  <path class="cls-1" d="m175.04,85.02c-49.66,0-89.72,39.95-89.72,89.48s40.06,89.48,89.72,89.48,89.72-39.95,89.72-89.48-40.06-89.48-89.72-89.48Zm0,147.65c-32.09,0-58.33-26.09-58.33-58.17s26.16-58.17,58.33-58.17,58.33,26.09,58.33,58.17-26.24,58.17-58.33,58.17Zm114.31-151.31c0,11.6-9.37,20.87-20.93,20.87s-20.93-9.34-20.93-20.87,9.37-20.87,20.93-20.87,20.93,9.34,20.93,20.87Zm59.42,21.18c-1.33-27.96-7.73-52.72-28.26-73.13-20.46-20.4-45.29-26.79-73.32-28.19-28.89-1.64-115.48-1.64-144.37,0-27.95,1.32-52.78,7.71-73.32,28.11C8.96,49.74,2.64,74.51,1.23,102.46c-1.64,28.81-1.64,115.18,0,143.99,1.33,27.96,7.73,52.72,28.27,73.12,20.54,20.4,45.29,26.79,73.32,28.19,28.89,1.64,115.48,1.64,144.37,0,28.03-1.32,52.86-7.71,73.32-28.19,20.46-20.4,26.86-45.17,28.26-73.12,1.64-28.81,1.64-115.1,0-143.91Zm-37.32,174.83c-6.09,15.26-17.88,27.02-33.26,33.18-23.03,9.11-77.69,7.01-103.15,7.01s-80.19,2.02-103.15-7.01c-15.3-6.07-27.09-17.83-33.26-33.18-9.14-22.97-7.03-77.49-7.03-102.87s-2.03-79.98,7.03-102.87c6.09-15.26,17.88-27.02,33.26-33.18,23.03-9.11,77.69-7.01,103.15-7.01s80.19-2.02,103.15,7.01c15.3,6.07,27.09,17.83,33.26,33.18,9.14,22.97,7.03,77.49,7.03,102.87s2.11,79.98-7.03,102.87Z"/>
</svg>