<svg width="350" height="349" viewBox="0 0 350 349" fill="none" xmlns="http://www.w3.org/2000/svg">
<path d="M175.039 85.0208C125.379 85.0208 85.3235 124.971 85.3235 174.5C85.3235 224.029 125.379 263.979 175.039 263.979C224.699 263.979 264.755 224.029 264.755 174.5C264.755 124.971 224.699 85.0208 175.039 85.0208ZM175.039 232.673C142.948 232.673 116.712 206.585 116.712 174.5C116.712 142.415 142.869 116.327 175.039 116.327C207.209 116.327 233.366 142.415 233.366 174.5C233.366 206.585 207.131 232.673 175.039 232.673ZM289.35 81.3606C289.35 92.9641 279.981 102.231 268.424 102.231C256.79 102.231 247.499 92.8863 247.499 81.3606C247.499 69.835 256.868 60.49 268.424 60.49C279.981 60.49 289.35 69.835 289.35 81.3606ZM348.77 102.543C347.443 74.5855 341.04 49.821 320.505 29.4175C300.047 9.01411 275.218 2.62831 247.186 1.22654C218.296 -0.408847 131.704 -0.408847 102.814 1.22654C74.8606 2.55043 50.0307 8.93624 29.4953 29.3397C8.95985 49.7431 2.63525 74.5076 1.22978 102.465C-0.409927 131.279 -0.409927 217.643 1.22978 246.457C2.55717 274.415 8.95985 299.179 29.4953 319.582C50.0307 339.986 74.7825 346.372 102.814 347.773C131.704 349.409 218.296 349.409 247.186 347.773C275.218 346.45 300.047 340.064 320.505 319.582C340.962 299.179 347.365 274.415 348.77 246.457C350.41 217.643 350.41 131.357 348.77 102.543ZM311.447 277.374C305.357 292.637 293.567 304.397 278.185 310.549C255.151 319.66 200.494 317.558 175.039 317.558C149.585 317.558 94.8494 319.582 71.8935 310.549C56.5895 304.475 44.7992 292.715 38.6308 277.374C29.4953 254.4 31.6035 199.887 31.6035 174.5C31.6035 149.113 29.5733 94.5216 38.6308 71.6262C44.7211 56.3625 56.5114 44.6033 71.8935 38.4511C94.9275 29.3397 149.585 31.4423 175.039 31.4423C200.494 31.4423 255.229 29.4175 278.185 38.4511C293.489 44.5254 305.279 56.2847 311.447 71.6262C320.583 94.5995 318.475 149.113 318.475 174.5C318.475 199.887 320.583 254.478 311.447 277.374Z" fill="#1E1E1E"/>
</svg>
