<svg width="375" height="83" viewBox="0 0 375 83" fill="none" xmlns="http://www.w3.org/2000/svg">
<path d="M28.0674 16.2891L346.145 8.0681L346.612 26.1622L28.535 34.3832L28.0674 16.2891Z" fill="#F0FCE1"/>
<path d="M0.303223 57.9023L375 64.1848L374.696 82.2824L-0.000214752 76L0.303223 57.9023Z" fill="#B7EEFB"/>
<path d="M310.336 23.8144L303.099 0.84375L308.444 0.701897L312.703 16.6829L312.895 16.6778L316.695 0.48297L321.272 0.36151L325.915 16.3662L326.119 16.3608L329.523 0.142583L334.868 0.000730798L328.86 23.3229L324.09 23.4494L319.281 8.43308L319.1 8.43788L315.105 23.6879L310.336 23.8144Z" fill="#2C2C2C"/>
<path d="M302.063 12.4512C302.13 14.9753 301.709 17.1353 300.799 18.9314C299.897 20.7272 298.637 22.1141 297.019 23.0919C295.408 24.0621 293.582 24.5743 291.54 24.6284C289.483 24.683 287.625 24.2649 285.965 23.3739C284.305 22.483 282.977 21.1649 281.981 19.4194C280.985 17.674 280.453 15.5429 280.386 13.0264C280.319 10.5023 280.737 8.34231 281.639 6.54648C282.542 4.75064 283.798 3.36766 285.409 2.39751C287.019 1.41983 288.852 0.903696 290.909 0.849115C292.951 0.794933 294.802 1.2133 296.462 2.10421C298.129 2.98738 299.461 4.30169 300.457 6.04714C301.461 7.79239 301.996 9.92707 302.063 12.4512ZM297.102 12.5828C297.058 10.9478 296.777 9.57547 296.257 8.46581C295.745 7.35594 295.041 6.52262 294.144 5.96585C293.247 5.40907 292.207 5.14638 291.024 5.17777C289.841 5.20916 288.817 5.52663 287.951 6.13019C287.084 6.73375 286.421 7.60336 285.961 8.73901C285.509 9.87447 285.304 11.2597 285.348 12.8947C285.391 14.5297 285.669 15.9022 286.181 17.012C286.7 18.1217 287.409 18.9549 288.306 19.5117C289.203 20.0685 290.243 20.3312 291.426 20.2998C292.608 20.2684 293.633 19.9509 294.499 19.3474C295.365 18.7438 296.025 17.8743 296.477 16.7388C296.937 15.6032 297.145 14.2178 297.102 12.5828Z" fill="#2C2C2C"/>
<path d="M276.443 1.55072L277.057 24.6971L272.831 24.8093L262.374 10.5083L262.204 10.5128L262.591 25.081L257.697 25.2109L257.083 2.06445L261.378 1.95049L271.755 16.2423L271.958 16.2369L271.572 1.67998L276.443 1.55072Z" fill="#2C2C2C"/>
<path d="M230.844 25.9238L230.229 2.77734L245.826 2.36348L245.933 6.39828L235.23 6.68229L235.377 12.1976L245.277 11.9349L245.384 15.9697L235.484 16.2324L235.63 21.7591L246.379 21.4739L246.486 25.5087L230.844 25.9238Z" fill="#2C2C2C"/>
<path d="M209.957 26.4765L209.343 3.33008L218.475 3.08776C220.223 3.04137 221.723 3.31448 222.976 3.90706C224.235 4.49191 225.204 5.34461 225.882 6.46514C226.568 7.57795 226.931 8.89911 226.972 10.4286C227.012 11.9657 226.716 13.2968 226.082 14.422C225.448 15.5397 224.51 16.409 223.267 17.0301C222.032 17.651 220.526 17.9851 218.747 18.0322L212.633 18.1945L212.529 14.2614L217.852 14.1202C218.786 14.0954 219.559 13.9467 220.17 13.6741C220.781 13.4015 221.23 13.0051 221.518 12.4847C221.813 11.9642 221.951 11.3234 221.931 10.5624C221.91 9.79387 221.739 9.14999 221.416 8.63076C221.1 8.11133 220.627 7.72429 219.994 7.46964C219.369 7.20725 218.585 7.08855 217.643 7.11355L214.343 7.20112L214.851 26.3466L209.957 26.4765ZM222.178 15.6114L228.21 25.9922L222.808 26.1355L216.9 15.7514L222.178 15.6114Z" fill="#2C2C2C"/>
<path d="M190.47 26.9941L189.856 3.84766L205.453 3.43379L205.56 7.46859L194.857 7.7526L195.003 13.268L204.904 13.0052L205.011 17.04L195.11 17.3028L195.257 22.8294L206.005 22.5442L206.112 26.579L190.47 26.9941Z" fill="#2C2C2C"/>
<path d="M166.725 27.6249L166.11 4.47852L171.004 4.34866L171.258 13.8988L181.192 13.6352L180.939 4.08505L185.821 3.95549L186.435 27.1019L181.553 27.2315L181.299 17.67L171.365 17.9336L171.618 27.4951L166.725 27.6249Z" fill="#2C2C2C"/>
<path d="M136.711 9.29652L136.604 5.26172L155.614 4.75729L155.721 8.79209L148.635 8.98012L149.142 28.0917L144.305 28.2201L143.797 9.10848L136.711 9.29652Z" fill="#2C2C2C"/>
<path d="M133.459 5.34475L134.073 28.4912L129.18 28.621L128.565 5.47461L133.459 5.34475Z" fill="#2C2C2C"/>
<path d="M100.928 29.3691L100.313 6.22266L109.445 5.98034C111.193 5.93395 112.694 6.20705 113.946 6.79964C115.206 7.38449 116.174 8.23719 116.853 9.35772C117.538 10.4705 117.901 11.7917 117.942 13.3212C117.983 14.8583 117.686 16.1894 117.052 17.3146C116.419 18.4323 115.48 19.3016 114.238 19.9227C113.002 20.5436 111.496 20.8776 109.718 20.9248L103.603 21.0871L103.499 17.154L108.822 17.0127C109.756 16.9879 110.529 16.8393 111.14 16.5667C111.751 16.2941 112.201 15.8977 112.488 15.3773C112.784 14.8568 112.921 14.216 112.901 13.455C112.881 12.6864 112.709 12.0426 112.386 11.5233C112.071 11.0039 111.597 10.6169 110.964 10.3622C110.339 10.0998 109.555 9.98113 108.614 10.0061L105.313 10.0937L105.821 29.2392L100.928 29.3691ZM113.148 18.504L119.18 28.8847L113.778 29.0281L107.87 18.644L113.148 18.504Z" fill="#2C2C2C"/>
<path d="M81.1098 29.8959L75.8657 30.0351L83.242 6.67664L89.5484 6.5093L98.1418 29.444L92.8977 29.5831L86.626 11.8799L86.4451 11.8847L81.1098 29.8959ZM80.5406 20.8066L92.9275 20.4779L93.0289 24.2979L80.642 24.6266L80.5406 20.8066Z" fill="#2C2C2C"/>
<path d="M57.6328 30.5195L57.0186 7.37305L72.6153 6.95918L72.7223 10.994L62.0194 11.278L62.1657 16.7933L72.0662 16.5306L72.1733 20.5654L62.2728 20.8281L62.4194 26.3548L73.1676 26.0696L73.2747 30.1044L57.6328 30.5195Z" fill="#2C2C2C"/>
<path d="M33.8871 31.1484L33.2729 8.00195L38.1667 7.8721L38.4201 17.4223L48.3545 17.1586L48.1011 7.60848L52.9836 7.47893L53.5978 30.6253L48.7153 30.7549L48.4616 21.1934L38.5272 21.4571L38.7809 31.0185L33.8871 31.1484Z" fill="#2C2C2C"/>
<path d="M345.798 80.9128L346.202 57.7617L355.335 57.9212C357.084 57.9517 358.571 58.2905 359.796 58.9375C361.028 59.5772 361.959 60.4717 362.587 61.6209C363.223 62.7628 363.527 64.0987 363.501 65.6285C363.474 67.1659 363.119 68.4827 362.437 69.5789C361.754 70.6676 360.779 71.4949 359.51 72.0607C358.249 72.6267 356.729 72.8942 354.95 72.8632L348.835 72.7564L348.903 68.8225L354.228 68.9155C355.162 68.9318 355.941 68.8172 356.563 68.5718C357.185 68.3263 357.652 67.95 357.962 67.4428C358.28 66.9358 358.446 66.3016 358.459 65.5405C358.472 64.7718 358.329 64.121 358.03 63.5881C357.737 63.0553 357.281 62.6478 356.66 62.3656C356.047 62.0759 355.269 61.9229 354.327 61.9065L351.027 61.8489L350.692 80.9982L345.798 80.9128ZM358.484 70.5955L364.054 81.2314L358.65 81.1371L353.205 70.5033L358.484 70.5955Z" fill="#2C2C2C"/>
<path d="M326.306 80.5729L326.71 57.4219L342.31 57.6942L342.239 61.7298L331.534 61.5429L331.438 67.0594L341.34 67.2322L341.27 71.2678L331.368 71.095L331.271 76.6227L342.021 76.8104L341.951 80.846L326.306 80.5729Z" fill="#2C2C2C"/>
<path d="M304.495 61.0708L304.565 57.0352L323.579 57.367L323.509 61.4026L316.421 61.2789L316.087 80.3944L311.249 80.3099L311.583 61.1945L304.495 61.0708Z" fill="#2C2C2C"/>
<path d="M288.05 79.9027L282.804 79.8112L291.201 56.7997L297.508 56.9098L305.085 80.2001L299.84 80.1085L294.353 62.1467L294.172 62.1435L288.05 79.9027ZM287.881 70.7971L300.27 71.0134L300.203 74.8342L287.814 74.618L287.881 70.7971Z" fill="#2C2C2C"/>
<path d="M265.407 79.5085L265.812 56.3574L270.706 56.4429L270.373 75.5583L280.298 75.7315L280.227 79.7671L265.407 79.5085Z" fill="#2C2C2C"/>
<path d="M236.229 59.8794L236.299 55.8438L255.313 56.1756L255.243 60.2112L248.155 60.0875L247.821 79.203L242.983 79.1185L243.317 60.0031L236.229 59.8794Z" fill="#2C2C2C"/>
<path d="M233.154 55.7886L232.749 78.9396L227.855 78.8542L228.259 55.7031L233.154 55.7886Z" fill="#2C2C2C"/>
<path d="M198.676 59.2231L198.747 55.1875L217.76 55.5194L217.69 59.555L210.602 59.4313L210.268 78.5467L205.43 78.4623L205.764 59.3468L198.676 59.2231Z" fill="#2C2C2C"/>
<path d="M190.707 55.0465L195.601 55.1319L195.339 70.1665C195.309 71.8546 194.88 73.3247 194.052 74.5767C193.231 75.8288 192.095 76.7965 190.643 77.4798C189.191 78.1555 187.508 78.4767 185.594 78.4433C183.672 78.4097 181.998 78.0299 180.571 77.304C179.144 76.5704 178.042 75.5637 177.265 74.2837C176.488 73.0036 176.115 71.5196 176.144 69.8315L176.407 54.7969L181.301 54.8823L181.046 69.4987C181.031 70.3804 181.209 71.1675 181.582 71.86C181.962 72.5526 182.502 73.1011 183.204 73.5053C183.906 73.9096 184.727 74.1199 185.669 74.1363C186.619 74.1529 187.448 73.9714 188.155 73.5917C188.87 73.2122 189.426 72.6829 189.823 72.0038C190.226 71.3249 190.436 70.5446 190.451 69.6628L190.707 55.0465Z" fill="#2C2C2C"/>
<path d="M172.578 66.3095C172.534 68.8342 172.018 70.9736 171.03 72.7279C170.05 74.4823 168.73 75.8124 167.071 76.7182C165.419 77.6166 163.572 78.048 161.53 78.0124C159.473 77.9764 157.635 77.477 156.015 76.514C154.396 75.5509 153.128 74.1756 152.209 72.3881C151.29 70.6005 150.853 68.4482 150.897 65.9311C150.941 63.4065 151.453 61.267 152.434 59.5126C153.414 57.7581 154.73 56.4317 156.382 55.5333C158.033 54.6274 159.888 54.1924 161.945 54.2283C163.988 54.2639 165.818 54.7633 167.437 55.7263C169.064 56.6819 170.337 58.0535 171.255 59.8411C172.181 61.6288 172.622 63.7849 172.578 66.3095ZM167.616 66.2229C167.644 64.5876 167.424 63.2042 166.953 62.0728C166.491 60.9415 165.823 60.078 164.952 59.4823C164.08 58.8866 163.053 58.5785 161.87 58.5578C160.686 58.5372 159.649 58.8093 158.757 59.3742C157.865 59.9391 157.165 60.7787 156.655 61.893C156.153 63.0075 155.888 64.3824 155.859 66.0177C155.831 67.6531 156.048 69.0364 156.511 70.1677C156.981 71.2991 157.652 72.1627 158.523 72.7584C159.395 73.354 160.422 73.6622 161.606 73.6828C162.789 73.7035 163.826 73.4314 164.718 72.8665C165.61 72.3016 166.307 71.4619 166.809 70.3474C167.318 69.2331 167.587 67.8583 167.616 66.2229Z" fill="#2C2C2C"/>
<path d="M130.056 77.1471L130.46 53.9961L139.73 54.1579C141.433 54.1876 142.849 54.4649 143.978 54.9897C145.108 55.5144 145.951 56.2302 146.508 57.137C147.065 58.0363 147.333 59.0662 147.313 60.2268C147.297 61.1311 147.103 61.923 146.729 62.6025C146.355 63.2744 145.848 63.8234 145.208 64.2495C144.575 64.6681 143.853 64.9608 143.044 65.1276L143.04 65.3537C143.921 65.4068 144.742 65.6699 145.502 66.143C146.271 66.6163 146.889 67.2716 147.357 68.109C147.824 68.9388 148.049 69.9227 148.029 71.0607C148.007 72.2891 147.683 73.3803 147.056 74.3342C146.436 75.2808 145.53 76.0226 144.337 76.5596C143.144 77.0967 141.681 77.35 139.948 77.3198L130.056 77.1471ZM135.021 73.2309L139.011 73.3005C140.375 73.3243 141.375 73.0817 142.009 72.5726C142.644 72.056 142.969 71.3606 142.984 70.4864C142.995 69.8458 142.851 69.2779 142.55 68.7827C142.25 68.2875 141.816 67.8954 141.248 67.6066C140.687 67.3179 140.015 67.1667 139.232 67.153L135.128 67.0814L135.021 73.2309ZM135.186 63.7692L138.815 63.8326C139.485 63.8443 140.083 63.7379 140.607 63.5133C141.139 63.2814 141.559 62.9495 141.868 62.5177C142.185 62.086 142.348 61.5649 142.359 60.9545C142.374 60.1179 142.088 59.4383 141.501 58.9154C140.922 58.3927 140.09 58.1219 139.005 58.1029L135.286 58.038L135.186 63.7692Z" fill="#2C2C2C"/>
<path d="M110.235 76.7992L104.989 76.7077L113.386 53.6961L119.693 53.8062L127.27 77.0966L122.025 77.005L116.538 59.0431L116.357 59.04L110.235 76.7992ZM110.066 67.6936L122.455 67.9099L122.388 71.7307L109.999 71.5144L110.066 67.6936Z" fill="#2C2C2C"/>
<path d="M77.9865 76.237L78.3906 53.0859L87.5244 53.2454C89.2728 53.2759 90.7595 53.6147 91.9845 54.2618C93.2172 54.9014 94.1477 55.7959 94.7759 56.9452C95.4118 58.087 95.7164 59.4229 95.6897 60.9527C95.6629 62.4901 95.3082 63.8069 94.6257 64.9031C93.9433 65.9918 92.9677 66.8191 91.6989 67.385C90.4377 67.9509 88.9178 68.2184 87.1392 68.1874L81.0237 68.0806L81.0923 64.1468L86.4166 64.2397C87.3511 64.256 88.1295 64.1414 88.752 63.896C89.3744 63.6506 89.8408 63.2742 90.1512 62.767C90.4691 62.26 90.6348 61.6259 90.648 60.8647C90.6615 60.096 90.5183 59.4452 90.2185 58.9123C89.9263 58.3795 89.4698 57.972 88.849 57.6898C88.2359 57.4002 87.4583 57.2471 86.5163 57.2307L83.2155 57.1731L82.8812 76.3224L77.9865 76.237ZM90.6729 65.9197L96.2428 76.5556L90.8394 76.4613L85.3938 65.8275L90.6729 65.9197Z" fill="#2C2C2C"/>
<path d="M58.1643 75.891L52.9191 75.7995L61.3153 52.7879L67.6231 52.898L75.1998 76.1884L69.9546 76.0968L64.4673 58.1349L64.2864 58.1318L58.1643 75.891ZM57.9953 66.7854L70.3847 67.0017L70.318 70.8225L57.9286 70.6062L57.9953 66.7854Z" fill="#2C2C2C"/>
<path d="M34.6828 75.4811L35.0869 52.3301L50.6867 52.6024L50.6163 56.638L39.9112 56.4511L39.8149 61.9676L49.7174 62.1404L49.647 66.176L39.7445 66.0032L39.648 71.5309L50.3983 71.7186L50.3278 75.7542L34.6828 75.4811Z" fill="#2C2C2C"/>
<path d="M10.9328 75.0671L11.3369 51.916L16.2316 52.0015L16.0649 61.5535L26.0013 61.727L26.168 52.1749L31.0515 52.2601L30.6474 75.4112L25.7639 75.3259L25.9309 65.7626L15.9945 65.5891L15.8275 75.1525L10.9328 75.0671Z" fill="#2C2C2C"/>
<path d="M190.227 49.7879L189.824 34.6016L195.816 34.4426C196.963 34.4121 197.947 34.5913 198.768 34.9801C199.595 35.3638 200.231 35.9233 200.676 36.6585C201.125 37.3886 201.363 38.2554 201.39 39.2589C201.417 40.2674 201.222 41.1408 200.807 41.879C200.391 42.6123 199.775 43.1827 198.96 43.5902C198.149 43.9975 197.161 44.2167 195.994 44.2477L191.983 44.3541L191.914 41.7736L195.407 41.6809C196.02 41.6647 196.527 41.5671 196.928 41.3883C197.328 41.2094 197.623 40.9493 197.812 40.6079C198.006 40.2664 198.096 39.846 198.083 39.3467C198.07 38.8425 197.957 38.42 197.745 38.0793C197.538 37.7385 197.227 37.4846 196.812 37.3175C196.402 37.1454 195.888 37.0675 195.27 37.0839L193.105 37.1413L193.438 49.7027L190.227 49.7879ZM198.245 42.6593L202.203 49.4701L198.658 49.5642L194.782 42.7512L198.245 42.6593Z" fill="#2C2C2C"/>
<path d="M187.647 42.2574C187.691 43.9135 187.415 45.3307 186.818 46.5091C186.226 47.6873 185.399 48.5972 184.337 49.2388C183.281 49.8753 182.083 50.2114 180.743 50.2469C179.393 50.2827 178.174 50.0084 177.085 49.4238C175.996 48.8393 175.125 47.9744 174.471 46.8293C173.817 45.6841 173.469 44.2859 173.425 42.6348C173.381 40.9787 173.655 39.5616 174.247 38.3833C174.839 37.2051 175.663 36.2977 176.72 35.6612C177.776 35.0197 178.979 34.6811 180.329 34.6453C181.669 34.6097 182.883 34.8842 183.972 35.4688C185.066 36.0482 185.94 36.9105 186.593 38.0557C187.252 39.2008 187.603 40.6013 187.647 42.2574ZM184.392 42.3438C184.363 41.271 184.179 40.3707 183.838 39.6426C183.502 38.9144 183.04 38.3677 182.451 38.0024C181.863 37.6371 181.18 37.4647 180.404 37.4853C179.628 37.5059 178.956 37.7142 178.388 38.1102C177.819 38.5062 177.384 39.0767 177.083 39.8219C176.786 40.5668 176.652 41.4757 176.68 42.5484C176.709 43.6211 176.891 44.5216 177.227 45.2498C177.568 45.9778 178.032 46.5245 178.621 46.8898C179.209 47.2551 179.891 47.4275 180.668 47.4069C181.444 47.3863 182.116 47.178 182.684 46.782C183.253 46.386 183.685 45.8155 183.982 45.0705C184.284 44.3254 184.42 43.4165 184.392 42.3438Z" fill="#2C2C2C"/>
</svg>
