<?xml version="1.0" encoding="UTF-8"?>
<svg id="Layer_1" data-name="Layer 1" xmlns="http://www.w3.org/2000/svg" viewBox="0 0 350 349">
  <defs>
    <style>
      .cls-1 {
        fill: #e5e5e5;
      }
    </style>
  </defs>
  <path class="cls-1" d="m165.9,2.1c50.6-1.5,94.1,14.3,129.9,49.2,28.8,28.1,46,62.6,50.3,102.7,5.9,54.4-10,102-48.2,141.3-27.8,28.6-62,45.6-101.7,50.3-48.9,5.8-93.1-6.8-131-38.3C28.8,277.1,8,237.8,3.6,190.6-.8,143.3,12.2,100.8,42.5,64.3,74.6,25.5,116.5,5.3,165.9,2.1ZM57.1,120.1c0,6.2,2.5,10.4,6.6,13.7,3.2,2.5,6.9,4,10.9,3.4,7-1,13.8-2.6,20.8-3.6,7.3-1,14.6-1.7,21.9-2.3,5.6-.4,11.2-.6,16.9-.7,3.3-.1,6.6.1,10,.3,8.2.5,16.3.8,24.5,1.5,6,.5,12,1.3,17.9,2.3,8.2,1.4,16.4,2.8,24.5,4.7,7.4,1.7,14.8,3.8,22,6.2,8.4,2.8,16.7,5.8,24.9,9.2,7.5,3.1,14.8,6.9,22.2,10.4,1.4.6,2.8,1.2,4.3,1.6,9.2,2.1,19.1-4.1,19.7-15.3.4-6.8-2.7-12.1-8.8-15.3-15.1-7.9-30.6-14.8-46.9-20-9.2-3-18.4-5.8-27.7-8.2-7-1.8-14.2-3.1-21.4-4.4-7.9-1.4-15.7-2.7-23.6-3.7-6-.8-12-1.2-18-1.5-5.2-.3-10.5-.6-15.8-.5-8.2,0-16.3.3-24.5.5-2,.1-4,.2-6,.4-4.4.5-8.9,1-13.3,1.5-3.4.4-6.8.6-10.1,1.2-5.6.9-11.2,2.1-16.9,2.9-8.5,1.2-14.4,8.6-14.1,15.7Zm208,96.7c7.6-.4,13.7-5.7,13.8-13.7.1-5.2-2.4-9.4-7.3-12-13.1-7-26.6-13.2-40.8-17.8-6.8-2.2-13.5-4.3-20.4-6.3-4.3-1.2-8.7-2.1-13.1-3-5.6-1.2-11.3-2.3-17-3.2-4.4-.7-9-1.1-13.4-1.5-5.6-.5-11.1-1.2-16.7-1.5-6.7-.3-13.4-.2-20.1,0-6.1.2-12.2.6-18.3,1.1-5.2.5-10.5,1.1-15.6,1.9-6.1.9-12.2,2.3-18.4,3.2-6.6,1-13.5,9.7-9.7,18.1,2.3,5.1,8.1,9.6,14.9,7.9,3.3-.8,6.6-1.5,10-2,6.1-.9,12.2-1.7,18.3-2.3,6.2-.6,12.5-1.3,18.8-1.5,5.9-.2,11.8.1,17.7.3,4.1.1,8.2.4,12.3.8,5.1.4,10.3.8,15.4,1.6,7,1.1,14,2.6,20.9,4.1,12,2.6,23.8,6.2,35.1,10.9,9.4,3.9,18.5,8.5,27.7,12.8,1.9.9,3.9,1.4,5.9,2.1Zm-146.9-5.2c-6.8.9-12.9,1.6-19.1,2.7-5.1.9-10.2,2.1-15.3,3.2-4.9,1.1-8.8,7.2-7.1,12.5,1.4,4.5,6.7,8.8,12,7.3,3.6-1,7.2-1.8,10.9-2.3,5.7-.9,11.5-1.6,17.2-2.3,4.6-.5,9.2-1.1,13.7-1.1,7.9,0,15.9.4,23.8.7,3.2.1,6.3.4,9.5.8,3.7.5,7.4,1.1,11.1,1.9,6.7,1.4,13.4,2.6,19.9,4.5,7,2,14,4.4,20.8,7.3,8.2,3.4,16.2,7.2,24,11.4,4.9,2.6,9.8,2.3,13.5-1.8,4.4-4.9,3.4-11.9-2.3-15.2-12-7.2-24.8-12.9-38.1-17.4-9-3-18.2-5.3-27.4-7.6-5.7-1.4-11.5-2.2-17.2-3.1-4.2-.6-8.4-.8-12.6-1.1-4.8-.4-9.6-.9-14.4-.9-7.7-.1-15.6.3-22.9.5Z"/>
</svg>