<?xml version="1.0" encoding="utf-8"?>
<!-- Generator: Adobe Illustrator 27.6.1, SVG Export Plug-In . SVG Version: 6.00 Build 0)  -->
<svg version="1.1" id="Layer_1" xmlns="http://www.w3.org/2000/svg" xmlns:xlink="http://www.w3.org/1999/xlink" x="0px" y="0px"
	 viewBox="0 0 350 349" style="enable-background:new 0 0 350 349;" xml:space="preserve">
<style type="text/css">
	.st0{fill:#1E1E1E;}
</style>
<path class="st0" d="M165.9,2.1c50.6-1.5,94.1,14.3,129.9,49.2c28.8,28.1,46,62.6,50.3,102.7c5.9,54.4-10,102-48.2,141.3
	c-27.8,28.6-62,45.6-101.7,50.3c-48.9,5.8-93.1-6.8-131-38.3C28.8,277.1,8,237.8,3.6,190.6c-4.4-47.3,8.6-89.8,38.9-126.3
	C74.6,25.5,116.5,5.3,165.9,2.1z M57.1,120.1c0,6.2,2.5,10.4,6.6,13.7c3.2,2.5,6.9,4,10.9,3.4c7-1,13.8-2.6,20.8-3.6
	c7.3-1,14.6-1.7,21.9-2.3c5.6-0.4,11.2-0.6,16.9-0.7c3.3-0.1,6.6,0.1,10,0.3c8.2,0.5,16.3,0.8,24.5,1.5c6,0.5,12,1.3,17.9,2.3
	c8.2,1.4,16.4,2.8,24.5,4.7c7.4,1.7,14.8,3.8,22,6.2c8.4,2.8,16.7,5.8,24.9,9.2c7.5,3.1,14.8,6.9,22.2,10.4c1.4,0.6,2.8,1.2,4.3,1.6
	c9.2,2.1,19.1-4.1,19.7-15.3c0.4-6.8-2.7-12.1-8.8-15.3c-15.1-7.9-30.6-14.8-46.9-20c-9.2-3-18.4-5.8-27.7-8.2
	c-7-1.8-14.2-3.1-21.4-4.4c-7.9-1.4-15.7-2.7-23.6-3.7c-6-0.8-12-1.2-18-1.5c-5.2-0.3-10.5-0.6-15.8-0.5c-8.2,0-16.3,0.3-24.5,0.5
	c-2,0.1-4,0.2-6,0.4c-4.4,0.5-8.9,1-13.3,1.5c-3.4,0.4-6.8,0.6-10.1,1.2c-5.6,0.9-11.2,2.1-16.9,2.9C62.7,105.6,56.8,113,57.1,120.1
	z M265.1,216.8c7.6-0.4,13.7-5.7,13.8-13.7c0.1-5.2-2.4-9.4-7.3-12c-13.1-7-26.6-13.2-40.8-17.8c-6.8-2.2-13.5-4.3-20.4-6.3
	c-4.3-1.2-8.7-2.1-13.1-3c-5.6-1.2-11.3-2.3-17-3.2c-4.4-0.7-9-1.1-13.4-1.5c-5.6-0.5-11.1-1.2-16.7-1.5c-6.7-0.3-13.4-0.2-20.1,0
	c-6.1,0.2-12.2,0.6-18.3,1.1c-5.2,0.5-10.5,1.1-15.6,1.9c-6.1,0.9-12.2,2.3-18.4,3.2c-6.6,1-13.5,9.7-9.7,18.1
	c2.3,5.1,8.1,9.6,14.9,7.9c3.3-0.8,6.6-1.5,10-2c6.1-0.9,12.2-1.7,18.3-2.3c6.2-0.6,12.5-1.3,18.8-1.5c5.9-0.2,11.8,0.1,17.7,0.3
	c4.1,0.1,8.2,0.4,12.3,0.8c5.1,0.4,10.3,0.8,15.4,1.6c7,1.1,14,2.6,20.9,4.1c12,2.6,23.8,6.2,35.1,10.9c9.4,3.9,18.5,8.5,27.7,12.8
	C261.1,215.6,263.1,216.1,265.1,216.8z M118.2,211.6c-6.8,0.9-12.9,1.6-19.1,2.7c-5.1,0.9-10.2,2.1-15.3,3.2
	c-4.9,1.1-8.8,7.2-7.1,12.5c1.4,4.5,6.7,8.8,12,7.3c3.6-1,7.2-1.8,10.9-2.3c5.7-0.9,11.5-1.6,17.2-2.3c4.6-0.5,9.2-1.1,13.7-1.1
	c7.9,0,15.9,0.4,23.8,0.7c3.2,0.1,6.3,0.4,9.5,0.8c3.7,0.5,7.4,1.1,11.1,1.9c6.7,1.4,13.4,2.6,19.9,4.5c7,2,14,4.4,20.8,7.3
	c8.2,3.4,16.2,7.2,24,11.4c4.9,2.6,9.8,2.3,13.5-1.8c4.4-4.9,3.4-11.9-2.3-15.2c-12-7.2-24.8-12.9-38.1-17.4c-9-3-18.2-5.3-27.4-7.6
	c-5.7-1.4-11.5-2.2-17.2-3.1c-4.2-0.6-8.4-0.8-12.6-1.1c-4.8-0.4-9.6-0.9-14.4-0.9C133.4,211,125.5,211.4,118.2,211.6z"/>
</svg>
