<?xml version="1.0" encoding="UTF-8"?>
<svg id="Layer_1" data-name="Layer 1" xmlns="http://www.w3.org/2000/svg" viewBox="0 0 500.27 500">
  <path d="m250.86,499.96c-41.51,0-83.02-.01-124.53.02-5.47,0-10.92-.25-16.38-.42-5.34-.16-10.68-.59-16.01-.95-12.5-.86-24.51-3.8-35.95-8.91-8.84-3.94-16.81-9.24-24.05-15.65-8.7-7.69-15.68-16.72-21.15-26.94-4.04-7.54-6.75-15.58-8.8-23.85-1.52-6.13-2.23-12.36-2.68-18.65-.47-6.6-.8-13.21-1.05-19.83-.14-3.97-.21-7.94-.22-11.91-.04-18.82-.02-37.65-.02-56.47.02-64.2.02-128.39.07-192.59,0-7.45.37-14.89.85-22.32.33-5.12.7-10.23,1.32-15.33.71-5.89,2.23-11.59,3.95-17.24,3.87-12.7,10.29-24,18.94-34.04,7.39-8.57,16.08-15.55,25.94-21.1,10.32-5.81,21.45-9.25,33.04-11.31,3.58-.64,7.22-.92,10.85-1.14,4.4-.27,8.8-.58,13.2-.87.28-.02.55-.04.83-.04C115.06.32,121.12-.01,127.19,0c18.27.03,36.54,0,54.81.01,64.47.01,128.95.02,193.42.04,7.06,0,14.12.34,21.16.73,5.83.32,11.66.71,17.46,1.48,6.54.86,12.89,2.5,19.12,4.58,15.68,5.22,29.04,14.07,40.17,26.24,10.35,11.31,17.52,24.42,21.61,39.22,1.92,6.94,3.19,13.97,3.7,21.15.4,5.61.74,11.23,1.01,16.85.21,4.36.21,8.71.29,13.07.48,25.17.31,50.34.16,75.5-.34,58.18-.03,116.35-.17,174.53,0,4.08.05,8.17-.13,12.25-.29,6.78-.64,13.55-1.15,20.32-.56,7.35-1.74,14.55-3.7,21.66-5.03,18.14-14.51,33.55-28.47,46.14-11.3,10.2-24.35,17.24-39.06,21.22-5.49,1.49-11.04,2.69-16.71,3.24-3.35.32-6.71.5-10.06.78-5.77.49-11.56.57-17.34.86-3.58.18-7.17.12-10.76.12-40.57,0-81.14,0-121.71,0v-.03Zm14.49-296.06c0,34.83,0,69.66,0,104.49,0,.77.05,1.55-.05,2.32-2.24,17.63-11.43,30.15-27.75,37.24-7.24,3.14-14.88,3.86-22.7,2.71-9.81-1.44-18.33-5.47-25.34-12.55-.89-.9-1.74-1.87-2.75-2.63-1.4-1.06-2.43-2.37-3.36-3.82-8.58-13.27-9.76-27.32-4.09-41.92,3.79-9.75,10.73-16.86,19.71-22.02,9.11-5.23,18.91-6.75,29.24-5.09,1.63.26,3.23.7,4.86,1.01.93.18,1.05.04,1.14-.9.02-.22.01-.44.01-.66,0-16.61,0-33.23,0-49.84,0-1.95-.16-2.16-2.15-2.33-4.07-.34-8.14-.59-12.22-.69-1.82-.05-3.63.15-5.45.21-4.48.15-8.91.64-13.31,1.41-10.93,1.92-21.18,5.68-30.68,11.45-9.72,5.91-18.01,13.45-25.25,22.19-5.95,7.19-10.88,15.02-14.51,23.61-6.19,14.63-8.86,29.87-7.74,45.75.37,5.19,1.14,10.31,2.26,15.38,2.45,11.06,6.89,21.28,12.96,30.82,2.91,4.58,6,9.01,9.96,12.75,2.53,2.39,5.07,4.75,7.67,7.06,10.8,9.6,23.05,16.62,36.93,20.77,7.97,2.38,16.13,3.67,24.42,4.06,3.79.18,7.6.13,11.41-.17,5.29-.42,10.52-1.16,15.66-2.46,17.03-4.32,32.12-12.25,44.79-24.5,9.64-9.32,17.07-20.2,22.37-32.53,4.85-11.3,7.3-23.13,7.56-35.39.15-7.23.07-14.46.07-21.69,0-28.59,0-57.19,0-85.78,0-.61-.03-1.22.02-1.82.08-1.02.38-1.2,1.24-.68.89.54,1.73,1.19,2.61,1.76,12.25,8.02,25.44,13.9,39.68,17.38,4.34,1.06,8.72,1.96,13.16,2.48,1.58.19,1.61.13,1.62-1.42.02-2.37,0-4.75,0-7.12,0-17.88,0-35.77,0-53.65,0-2.08-.11-2.22-2.12-2.18-4.5.08-8.91-.64-13.28-1.56-7.12-1.5-13.85-4.07-20.25-7.55-1.6-.87-3.23-1.68-4.55-2.98-1.7-1.67-3.68-2.99-5.51-4.49-1.71-1.4-3.41-2.81-5.01-4.33-10.3-9.73-17.14-21.51-20.64-35.22-.33-1.28-.63-2.57-.96-3.85-.27-1.03-.96-1.58-2.03-1.63-.39-.02-.77-.02-1.16-.02-11.04,0-22.08,0-33.12,0-.44,0-.89-.02-1.32.03-1.35.13-1.87.64-1.98,1.97-.07.82-.05,1.65-.05,2.48,0,34.72,0,69.44,0,104.16Z"/>
</svg>