<?xml version="1.0" encoding="utf-8"?>
<!-- Generator: Adobe Illustrator 27.6.1, SVG Export Plug-In . SVG Version: 6.00 Build 0)  -->
<svg version="1.1" id="Layer_1" xmlns="http://www.w3.org/2000/svg" xmlns:xlink="http://www.w3.org/1999/xlink" x="0px" y="0px"
	 viewBox="0 0 500.3 500" style="enable-background:new 0 0 500.3 500;" xml:space="preserve">
<style type="text/css">
	.st0{fill:#E5E5E5;}
</style>
<g>
	<path class="st0" d="M250.9,500c-41.5,0-83,0-124.5,0c-5.5,0-10.9-0.3-16.4-0.4c-5.3-0.2-10.7-0.6-16-1c-12.5-0.9-24.5-3.8-36-8.9
		c-8.8-3.9-16.8-9.2-24.1-15.7c-8.7-7.7-15.7-16.7-21.2-26.9c-4-7.5-6.7-15.6-8.8-23.9c-1.5-6.1-2.2-12.4-2.7-18.6
		c-0.5-6.6-0.8-13.2-1-19.8c-0.1-4-0.2-7.9-0.2-11.9c0-18.8,0-37.6,0-56.5C0,252.2,0,188,0.1,123.8c0-7.4,0.4-14.9,0.9-22.3
		c0.3-5.1,0.7-10.2,1.3-15.3c0.7-5.9,2.2-11.6,4-17.2c3.9-12.7,10.3-24,18.9-34c7.4-8.6,16.1-15.6,25.9-21.1
		C61.4,8,72.5,4.5,84.1,2.5c3.6-0.6,7.2-0.9,10.9-1.1c4.4-0.3,8.8-0.6,13.2-0.9c0.3,0,0.6,0,0.8,0c6.1-0.1,12.1-0.4,18.2-0.4
		c18.3,0,36.5,0,54.8,0c64.5,0,128.9,0,193.4,0c7.1,0,14.1,0.3,21.2,0.7c5.8,0.3,11.7,0.7,17.5,1.5c6.5,0.9,12.9,2.5,19.1,4.6
		c15.7,5.2,29,14.1,40.2,26.2c10.3,11.3,17.5,24.4,21.6,39.2c1.9,6.9,3.2,14,3.7,21.2c0.4,5.6,0.7,11.2,1,16.8
		c0.2,4.4,0.2,8.7,0.3,13.1c0.5,25.2,0.3,50.3,0.2,75.5c-0.3,58.2,0,116.4-0.2,174.5c0,4.1,0,8.2-0.1,12.3
		c-0.3,6.8-0.6,13.6-1.2,20.3c-0.6,7.3-1.7,14.6-3.7,21.7c-5,18.1-14.5,33.5-28.5,46.1C455.2,484,442.1,491,427.4,495
		c-5.5,1.5-11,2.7-16.7,3.2c-3.3,0.3-6.7,0.5-10.1,0.8c-5.8,0.5-11.6,0.6-17.3,0.9c-3.6,0.2-7.2,0.1-10.8,0.1
		C332,500,291.4,500,250.9,500C250.9,500,250.9,500,250.9,500z M265.3,203.9c0,34.8,0,69.7,0,104.5c0,0.8,0.1,1.6,0,2.3
		c-2.2,17.6-11.4,30.2-27.7,37.2c-7.2,3.1-14.9,3.9-22.7,2.7c-9.8-1.4-18.3-5.5-25.3-12.5c-0.9-0.9-1.7-1.9-2.7-2.6
		c-1.4-1.1-2.4-2.4-3.4-3.8c-8.6-13.3-9.8-27.3-4.1-41.9c3.8-9.7,10.7-16.9,19.7-22c9.1-5.2,18.9-6.8,29.2-5.1
		c1.6,0.3,3.2,0.7,4.9,1c0.9,0.2,1.1,0,1.1-0.9c0-0.2,0-0.4,0-0.7c0-16.6,0-33.2,0-49.8c0-2-0.2-2.2-2.2-2.3
		c-4.1-0.3-8.1-0.6-12.2-0.7c-1.8,0-3.6,0.2-5.5,0.2c-4.5,0.1-8.9,0.6-13.3,1.4c-10.9,1.9-21.2,5.7-30.7,11.5
		c-9.7,5.9-18,13.4-25.2,22.2c-6,7.2-10.9,15-14.5,23.6c-6.2,14.6-8.9,29.9-7.7,45.7c0.4,5.2,1.1,10.3,2.3,15.4
		c2.4,11.1,6.9,21.3,13,30.8c2.9,4.6,6,9,10,12.8c2.5,2.4,5.1,4.8,7.7,7.1c10.8,9.6,23.1,16.6,36.9,20.8c8,2.4,16.1,3.7,24.4,4.1
		c3.8,0.2,7.6,0.1,11.4-0.2c5.3-0.4,10.5-1.2,15.7-2.5c17-4.3,32.1-12.3,44.8-24.5c9.6-9.3,17.1-20.2,22.4-32.5
		c4.8-11.3,7.3-23.1,7.6-35.4c0.2-7.2,0.1-14.5,0.1-21.7c0-28.6,0-57.2,0-85.8c0-0.6,0-1.2,0-1.8c0.1-1,0.4-1.2,1.2-0.7
		c0.9,0.5,1.7,1.2,2.6,1.8c12.3,8,25.4,13.9,39.7,17.4c4.3,1.1,8.7,2,13.2,2.5c1.6,0.2,1.6,0.1,1.6-1.4c0-2.4,0-4.7,0-7.1
		c0-17.9,0-35.8,0-53.7c0-2.1-0.1-2.2-2.1-2.2c-4.5,0.1-8.9-0.6-13.3-1.6c-7.1-1.5-13.9-4.1-20.2-7.5c-1.6-0.9-3.2-1.7-4.5-3
		c-1.7-1.7-3.7-3-5.5-4.5c-1.7-1.4-3.4-2.8-5-4.3c-10.3-9.7-17.1-21.5-20.6-35.2c-0.3-1.3-0.6-2.6-1-3.9c-0.3-1-1-1.6-2-1.6
		c-0.4,0-0.8,0-1.2,0c-11,0-22.1,0-33.1,0c-0.4,0-0.9,0-1.3,0c-1.3,0.1-1.9,0.6-2,2c-0.1,0.8-0.1,1.7-0.1,2.5
		C265.3,134.5,265.3,169.2,265.3,203.9z"/>
</g>
</svg>
