<?xml version="1.0" encoding="utf-8"?>
<!-- Generator: Adobe Illustrator 27.6.1, SVG Export Plug-In . SVG Version: 6.00 Build 0)  -->
<svg version="1.1" id="Layer_1" xmlns="http://www.w3.org/2000/svg" xmlns:xlink="http://www.w3.org/1999/xlink" x="0px" y="0px"
	 viewBox="0 0 483 130.4" style="enable-background:new 0 0 483 130.4;" xml:space="preserve">
<style type="text/css">
	.st0{fill:#F0FCE1;}
	.st1{fill:#FF380E;}
</style>
<g>
	<path class="st0" d="M241.7,130.4L241.7,130.4L241.7,130.4z"/>
	<path class="st0" d="M336.6,103.3L336.6,103.3L336.6,103.3z"/>
	<path class="st0" d="M481,55.8c0-0.4-0.1-0.8-0.1-1.2c0.7-3.2,1.1-6.5,1.1-9.8c0-0.2,0-0.4,0-0.6c-0.3-15.9-7.8-29.5-20.7-37.3
		c-10-6-20.3-6.8-27.1-6.9C434.1,0,422,0,422,0c-0.6,0-1.1,0-1.7,0s-1.1,0-1.7,0h-22.2c-2.4,0-4.8,0.3-7.1,0.7
		c-2.3-0.5-4.6-0.7-7-0.7h-7.4c-2.3,0-4.5,0.2-6.7,0.6C366,0.2,363.8,0,361.5,0h-5.8c-0.9,0-1.9,0-2.8,0.1c-1.1-0.1-2-0.1-3-0.1
		h-5.8c-2.6,0-5,0.3-7.5,0.8c-2.4-0.5-4.9-0.8-7.5-0.8h-5.8c-13.4,0-25,7.5-30.9,18.5c-1.4-0.1-2.9-0.2-4.3-0.2c-3.5,0-7,0.3-10.3,1
		c-0.6,0-1.2,0-1.8,0h-9.4c-3.2,0-6.3,0.4-9.3,1.3c-5-1.5-10.3-2.2-15.8-2.2c-1.7,0-3.4,0.1-5.1,0.2c-1.8-1.8-3.7-3.5-5.8-5
		c-10-7.4-22.3-11.2-36.6-11.2c-18.1,0-33.4,6.7-43.5,17.8c-4.3-1.1-9.2-1.8-14.8-1.8c-0.5,0-1.1,0-1.6,0
		C127.7,8.8,116.8,2.8,105,2.8H94.3c-9.5,0-18.4,3.9-24.9,10.4C63.1,7,54.5,3.2,45,3.2H35C15.7,3.3,0,19,0,38.3v56.1
		c0,19.3,15.7,35,35,35l0,0h38.1c2.2,0,4.4-0.2,6.6-0.6c4.4,1,8.9,1.6,13.6,1.6l0,0c6.8,0,13.2-1,19.1-3c5.5,2,11.5,3,17.9,3l0,0
		c3.8,0,7.4-0.4,10.9-1.1c0.9,0.1,1.8,0.1,2.7,0.1h9.5c5.9,0,11.4-1.5,16.3-4c7.7,3.2,16.3,5,25.7,5l0,0c8.9,0,17.2-1.4,24.7-4.1
		c6.7,2.7,14,4.1,21.7,4.1c5.7,0,11-0.7,16.1-2.1c2.9,0.8,5.8,1.2,8.9,1.2h9.5c2.9,0,5.8-0.4,8.5-1c2.7,0.7,5.6,1,8.5,1l0,0h9.6
		c16.3,0,29.9-11.1,33.9-26.1l0,0c4.2,0,8.1-0.4,11.9-1.3c2.3,0.5,4.6,0.7,7,0.7h5.8c2.4,0,4.7-0.2,7-0.7c2.2,0.5,4.6,0.7,6.9,0.7
		l0,0h7.2c2.4,0,4.7-0.2,6.9-0.7c2.3,0.5,4.6,0.7,7,0.7l0,0h5.8c3.4,0,6.7-0.5,9.9-1.4c3.1,0.9,6.5,1.4,9.9,1.4h5.8
		c2.4,0,4.7-0.2,7-0.7c2.3,0.5,4.6,0.7,7,0.7h6.3c15.1,0,28.4-9.6,33.2-23.9v-0.1C483.7,71.1,483.6,63.1,481,55.8z"/>
</g>
<g>
	<path class="st1" d="M73.1,85.9v8.5H35V38.3h9.9v47.6C44.9,85.9,73.1,85.9,73.1,85.9z"/>
	<path class="st1" d="M112.8,77H83c0.2,7.4,3.5,11.2,10.2,11.2c5.8,0,8.9-2.5,9.8-7.4l9.2,0.7c-2,9.1-8.7,13.8-18.9,13.8
		c-6,0-10.9-1.8-14.5-5.5c-3.6-3.6-5.4-8.8-5.4-15.6c0-6.3,1.8-11.5,5.4-15.3s8.4-5.6,14.4-5.6c6.3,0,11.6,2.4,15.1,6.7
		c3,3.8,4.6,9.3,4.6,15.7L112.8,77L112.8,77z M83.1,69.9h20c-0.1-2.3-1-4.7-2.2-6.2c-1.8-2.2-4.2-3.1-7.7-3.1
		c-3.8,0-6.4,1.2-8.1,3.5C84,65.5,83.3,67.6,83.1,69.9L83.1,69.9z M94.3,37.8h10.8l-8.2,10.7h-8.2L94.3,37.8L94.3,37.8z"/>
	<path class="st1" d="M130.8,70.9l11.9-2.2c0-3.1-0.2-4.6-1.2-6.1s-3.1-2.2-6.4-2.2c-5.5,0-8.1,2.1-8.1,7.4l-9.3-1.2
		c0.2-4.7,1.9-8,5-10.2c3-2.1,7.4-3.1,13.1-3.1c10.3,0,16.1,4.6,16.1,13.2v20.6c0,2.5,0.5,4.7,1.4,6.9v0.3h-9.5
		c-0.4-1.8-0.6-3.7-0.6-5.7c-2.2,4.2-6.6,6.7-13.1,6.7c-7.5,0-13.9-4-13.9-12S122.6,72.4,130.8,70.9L130.8,70.9z M142.8,75.3
		l-10.4,2.2c-4.2,0.9-6.2,2.2-6.2,5.7c0,3.2,2.6,5,6.2,5c6.7,0,10.5-3.4,10.5-9.2v-3.7H142.8z"/>
	<path class="st1" d="M181.9,74.8c0,8.1,5.6,12.4,13.5,12.4s12.9-2.6,12.9-8.8c-0.4-5.4-3.6-5.9-11.2-7.4c-2.5-0.4-4.1-0.7-4.7-0.9
		c-11.4-2.5-19-6.3-19.2-16.7c0-11.5,10.2-16.2,21-16.2c12.9,0,21.4,5.4,22.6,17.9L206.5,57c-0.3-7.7-4.8-11.6-12.5-11.6
		c-5.9,0-10.7,2.6-10.7,7.7c0.3,5,5.2,6.6,14,8c13.2,2.2,20.9,5.3,21.2,17c0,6.2-2.2,10.7-6.6,13.4c-4.4,2.7-9.9,3.9-16.7,3.9
		c-13,0-23.6-6.4-23.7-19.4L181.9,74.8L181.9,74.8z"/>
	<path class="st1" d="M261.2,77h-29.8c0.2,7.4,3.5,11.2,10.2,11.2c5.8,0,8.9-2.5,9.8-7.4l9.2,0.7c-2,9.1-8.7,13.8-18.9,13.8
		c-6,0-10.9-1.8-14.5-5.5c-3.6-3.6-5.4-8.8-5.4-15.6c0-6.3,1.8-11.5,5.4-15.3c3.6-3.8,8.4-5.6,14.4-5.6c6.3,0,11.6,2.4,15.1,6.7
		c3,3.8,4.6,9.3,4.6,15.7L261.2,77L261.2,77z M231.5,69.9h20c-0.1-2.3-1-4.7-2.2-6.2c-1.8-2.2-4.2-3.1-7.7-3.1
		c-3.8,0-6.4,1.2-8.1,3.5C232.4,65.5,231.8,67.6,231.5,69.9L231.5,69.9z"/>
	<path class="st1" d="M302.7,94.4h-9.6V70.9c0-4.4-0.3-6.3-2.2-8.2c-1.6-1.6-3.4-1.9-6-1.9c-4,0-8.7,2.4-8.7,11.6v22h-9.5V54.3h9.4
		v6c2-4.7,6.2-7,12.1-7c5,0,8.4,1.3,11.2,4.1c2.8,2.9,3.4,6.9,3.4,12.7L302.7,94.4L302.7,94.4z"/>
	<path class="st1" d="M323.4,35h5.8v21.6c0,4.5,3.2,6.8,7.4,6.8s7.5-2.2,7.5-6.8V35h5.8v21.9c0,7.4-4.7,11.4-13.3,11.4
		s-13.3-4-13.3-11.4V35H323.4z"/>
	<path class="st1" d="M364.9,52.8l-3.5,3.6v11.3h-5.8V35h5.8v14l13.3-14h7.4L369,48.6l13.4,19.1h-7.1L364.9,52.8L364.9,52.8z"/>
	<path class="st1" d="M377.3,49.1h14.2v5h-14.2V49.1z"/>
	<path class="st1" d="M396.3,35h22.2v4.9h-16.4v8.9h14.7v4.8h-14.7v14.1h-5.8L396.3,35L396.3,35z"/>
	<path class="st1" d="M448,67.7h-6.3c-1-1.8-1.3-3-1.3-7.5c0-4-1.8-5.4-6.4-5.4h-6.2v12.9H422V35h12c7.4,0,12.9,1.5,13,9.8
		c0,3.9-2,6.8-5.1,8.1c3,1.1,4.3,3.4,4.3,7S446.6,65.6,448,67.7L448,67.7L448,67.7z M433.6,39.7h-5.8v10.4h5.8
		c4.5,0,7.7-0.7,7.7-5.1C441,40.1,438.2,39.8,433.6,39.7L433.6,39.7z"/>
</g>
</svg>
