<?xml version="1.0" encoding="utf-8"?>
<!-- Generator: Adobe Illustrator 27.6.1, SVG Export Plug-In . SVG Version: 6.00 Build 0)  -->
<svg version="1.1" id="Layer_2_00000022556759152697205770000008006663907432724388_"
	 xmlns="http://www.w3.org/2000/svg" xmlns:xlink="http://www.w3.org/1999/xlink" x="0px" y="0px" viewBox="0 0 567.6 145.8"
	 style="enable-background:new 0 0 567.6 145.8;" xml:space="preserve">
<style type="text/css">
	.st0{fill:#FF380E;}
	.st1{fill:#F0FCE1;}
</style>
<g>
	<path class="st0" d="M486.9,103.3L486.9,103.3L486.9,103.3z"/>
	<path class="st0" d="M563.5,51.2c4.7-9.1,5.3-20,1.2-29.8C559.2,8.4,546.5,0,532.4,0H525c-2.3,0-4.5,0.2-6.7,0.6
		c-2.2-0.4-4.4-0.6-6.7-0.6h-5.8c-0.9,0-1.9,0-2.8,0.1C502,0,501.1,0,500.2,0h-5.8c-2.6,0-5,0.3-7.5,0.8C484.5,0.3,482,0,479.4,0
		h-5.8c-13.7,0-25.6,7.9-31.3,19.4c-2.6,0.1-5.1,0.4-7.5,1c-2.7-0.7-5.6-1-8.5-1h-9.7c-2.7,0-5.3,0.3-7.8,0.9
		c-4.7-1.2-9.8-1.8-15.4-1.8c-1.6,0-3.1,0.1-4.6,0.2C377.9,8.3,363,2.3,345.9,2.3c-18.6,0-34.5,6.9-45.7,18.8
		c-4.1-1.3-8.9-2.3-14.3-2.6C279.7,9,269,2.8,256.8,2.8h-9.5c-12.2,0-23,6.3-29.3,15.8c-2.1,0.2-4.1,0.5-6.1,0.9
		c-1.3-0.1-2.6-0.2-3.8-0.2h-9.9c-3.3,0-6.5,0.5-9.5,1.3c-3-0.9-6.3-1.3-9.5-1.3h-4.1c-2.6-0.6-5.3-1-8.1-1h-1.8c-0.4,0-0.8,0-1.3,0
		c-3.1,0.1-6,0.5-8.9,1c-0.9-0.1-1.8-0.1-2.6-0.1H143c-2.8,0-5.4,0.3-8,0.9c-3.6-0.9-7.6-1.6-12.1-1.8c-6.3-9-16.9-15-28.8-15H78.7
		c-4.9,0-9.7,1-14.1,3c-4.3-1.9-9.1-3-14.1-3H35C15.7,3.3,0,19,0,38.3v56.1c0,19.3,15.7,35,35,35h9.5c2.5,0,5-0.3,7.3-0.8
		c2.4,0.5,4.8,0.8,7.3,0.8h10.7c2.5,0,5-0.3,7.4-0.8c2.4,0.5,4.9,0.8,7.4,0.8h9.5c2.3,0,4.6-0.2,6.8-0.7c4.2,1.1,8.6,1.6,13.3,1.6
		l0,0c3.8,0,7.4-0.4,10.9-1.1c0.9,0.1,1.8,0.1,2.7,0.1h9.5c1,0,1.9,0,2.9-0.1c1,0.1,2,0.1,3,0.1h0.7c4.2,6.3,10.4,11.2,18,13.7
		c7.2,2.4,14,2.8,17.4,2.8l0,0c15.9,0,26.5-7,32.5-12.9c1.1-1.1,2.2-2.2,3.1-3.4c3.2,0.5,6.5,0.8,9.9,0.8l0,0
		c5.3,0,10.4-0.6,15.2-1.8c2.4,0.5,4.9,0.8,7.5,0.8h9.5c2.2,0,4.4-0.2,6.5-0.6c4.1,1,8.5,1.6,13.1,1.6l0,0c3.8,0,7.4-0.4,10.9-1.1
		c0.9,0.1,1.8,0.1,2.7,0.1h9.5c6.6,0,12.8-1.8,18.1-5c8.3,3.9,17.9,6,28.3,6c9,0,17.4-1.7,24.9-4.7c7,3,14.9,4.7,23.5,4.7l0,0
		c6.9,0,13.4-1,19.4-2.9c5.1,1.8,11,3,17.9,3l0,0c3.5,0,6.9-0.3,10.2-1c0.5,0,1,0,1.6,0h9.3c16.3,0,29.9-11.1,33.9-26.1
		c0.1,0,0.2,0,0.3,0c4.2,0,8.1-0.4,11.9-1.3c2.3,0.5,4.6,0.7,7,0.7h5.8c2.4,0,4.7-0.2,7-0.7c2.2,0.4,4.6,0.7,6.9,0.7l0,0h7.2
		c13,0,25-7.3,31-18.9C569,73.5,568.9,61.3,563.5,51.2z"/>
</g>
<g>
	<path class="st1" d="M35,38.3h15.5l9.1,28.8c2.1,6.7,3.7,12.4,4.9,17.2h0.1l2.2-8.2c0.9-3.2,1.8-6.2,2.6-8.9l9.2-28.9H94v56.1h-9.5
		V61.5c0-1.6,0-3.8,0.1-6.7l0.2-7.6h-0.2c-2.2,7.6-3.7,12.7-4.5,15.1L69.9,94.4H59.1L48.8,62.2c-0.2-0.4-0.9-2.6-2.1-6.9l-2.5-8.1
		H44c0.2,7.3,0.4,12.1,0.4,14.4v32.8H35V38.3L35,38.3z"/>
	<path class="st1" d="M114.7,70.9l11.9-2.2c0-3.1-0.2-4.6-1.2-6.1s-3.1-2.2-6.4-2.2c-5.5,0-8.1,2.1-8.1,7.4l-9.3-1.2
		c0.2-4.7,1.9-8,5-10.2c3-2.1,7.4-3.1,13.1-3.1c10.3,0,16.1,4.6,16.1,13.2v20.6c0,2.5,0.5,4.7,1.4,6.9v0.3h-9.5
		c-0.4-1.8-0.6-3.7-0.6-5.7c-2.2,4.2-6.7,6.7-13.1,6.7c-7.5,0-13.9-4-13.9-12S106.5,72.4,114.7,70.9L114.7,70.9z M126.7,75.3
		l-10.4,2.2c-4.2,0.9-6.2,2.2-6.2,5.7c0,3.2,2.6,5,6.2,5c6.7,0,10.5-3.4,10.5-9.2L126.7,75.3L126.7,75.3z"/>
	<path class="st1" d="M167,53.4l-0.2,8.7c-0.6-0.1-1.2-0.1-1.9-0.1c-8,0-12.3,3.2-12.3,14.1v18.3H143V54.3h9.4v7.2
		c1.4-4.9,6.2-7.9,12.8-8.2h1.8V53.4z"/>
	<path class="st1" d="M208.2,54.3l-15.5,43.4c-3.3,9.5-6.8,13.1-13.6,13.1c-1.9,0-4.4-0.3-6.3-1l0.2-8.4c1.9,0.6,3.5,0.9,4.8,0.9
		c3.4,0,4.7-1.8,6.7-7.9L169,54.3h10.3l6.5,19.4c0.7,1.8,1.8,5.3,3.1,10.2c1-3.7,2.2-7.2,3.3-10.6l6.2-19L208.2,54.3L208.2,54.3z"/>
	<path class="st1" d="M215.8,80.6c0.1,5.1,3.5,7.9,9,7.9s8.2-1.8,8.2-5.3c-0.4-3.1-2.5-3.6-8.6-5.1l-2.4-0.6
		c-8.4-2.2-13.6-4.2-13.9-12.2c0-8.2,7.4-12,15.8-12c9.6,0,16.2,3.8,17.1,12.7l-8.7,1.4c-0.2-4.9-3.2-7.4-8.3-7.4
		c-3.9,0-6.8,1.6-6.8,4.5s3.1,4,8.8,5.2c3.6,0.7,6.4,1.5,8.4,2.2c4.2,1.5,7.7,4.7,7.7,10.6c0,4.5-1.6,7.7-4.9,9.7s-7.4,3-12.3,3
		c-9.8,0-17.5-4.3-17.8-13.7L215.8,80.6L215.8,80.6z"/>
	<path class="st1" d="M247.4,37.8h9.5v10.3h-9.5V37.8z M247.4,54.3h9.5v40.1h-9.5V54.3z"/>
	<path class="st1" d="M277.1,70.9l11.9-2.2c0-3.1-0.2-4.6-1.2-6.1s-3.1-2.2-6.4-2.2c-5.5,0-8.1,2.1-8.1,7.4l-9.3-1.2
		c0.2-4.7,1.9-8,5-10.2c3-2.1,7.4-3.1,13.1-3.1c10.3,0,16.1,4.6,16.1,13.2v20.6c0,2.5,0.5,4.7,1.4,6.9v0.3h-9.5
		c-0.4-1.8-0.6-3.7-0.6-5.7c-2.2,4.2-6.6,6.7-13.1,6.7c-7.5,0-13.9-4-13.9-12S268.8,72.4,277.1,70.9z M289,75.3l-10.4,2.2
		c-4.2,0.9-6.2,2.2-6.2,5.7c0,3.2,2.6,5,6.2,5c6.7,0,10.5-3.4,10.5-9.2v-3.7H289z"/>
	<path class="st1" d="M345.9,37.3c17.3,0,27.5,11.9,27.5,29s-10.2,29-27.5,29s-27.5-10.4-27.5-29C318.4,49.1,328.5,37.3,345.9,37.3z
		 M362.7,66.3c0-6.4-1.4-11.8-3.9-15.4c-2.6-3.7-6.8-5.5-12.5-5.5s-10.4,1.9-13.1,5.4c-2.6,3.2-4.1,9.1-4.1,15.5s1.4,12,3.8,15.2
		c2.8,3.8,7.5,5.8,13.1,5.8c5.9,0,10.2-1.8,12.8-5.6C361.4,78,362.7,72.8,362.7,66.3z"/>
	<path class="st1" d="M385.4,80.6c0.1,5.1,3.5,7.9,9,7.9s8.2-1.8,8.2-5.3c-0.4-3.1-2.5-3.6-8.6-5.1l-2.4-0.6
		c-8.4-2.2-13.6-4.2-14-12.2c0-8.2,7.4-12,15.8-12c9.6,0,16.2,3.8,17.1,12.7l-8.7,1.4c-0.2-4.9-3.2-7.4-8.3-7.4
		c-3.9,0-6.8,1.6-6.8,4.5s3.1,4,8.8,5.2c3.6,0.7,6.4,1.5,8.4,2.2c4.2,1.5,7.7,4.7,7.7,10.6c0,4.5-1.6,7.7-4.9,9.7s-7.4,3-12.3,3
		c-9.8,0-17.5-4.3-17.8-13.7L385.4,80.6L385.4,80.6z"/>
	<path class="st1" d="M452.7,54.3v40.1h-9.3v-5.9c-2.2,4.5-6.2,6.9-11.8,6.9c-5,0-8.6-1.4-11.5-4.4s-3.5-7.1-3.5-13.1V54.3h9.7v23
		c0,4.6,0.3,6.7,2,8.5s3.5,2.1,6.3,2.1c2.3,0,4.4-0.8,6.1-2.5s2.6-4.7,2.6-9V54.3H452.7L452.7,54.3z"/>
	<path class="st1" d="M473.6,35h5.8v21.6c0,4.5,3.2,6.8,7.4,6.8s7.5-2.2,7.5-6.8V35h5.8v21.9c0,7.4-4.7,11.4-13.3,11.4
		s-13.3-4-13.3-11.4V35H473.6z"/>
	<path class="st1" d="M515.1,52.8l-3.5,3.6v11.3h-5.8V35h5.8v14L525,35h7.4l-13.2,13.6l13.4,19.1h-7.2L515.1,52.8L515.1,52.8z"/>
</g>
</svg>
