<?xml version="1.0" encoding="utf-8"?>
<!-- Generator: Adobe Illustrator 27.6.1, SVG Export Plug-In . SVG Version: 6.00 Build 0)  -->
<svg version="1.1" id="Layer_2_00000170972584416073281290000016959108436944479872_"
	 xmlns="http://www.w3.org/2000/svg" xmlns:xlink="http://www.w3.org/1999/xlink" x="0px" y="0px" viewBox="0 0 394.1 130.4"
	 style="enable-background:new 0 0 394.1 130.4;" xml:space="preserve">
<style type="text/css">
	.st0{fill:#0049FF;}
	.st1{fill:#F0FCE1;}
</style>
<path class="st0" d="M394.1,39.9V35c0-19.3-15.7-35-35-35h-22.2c-2.6,0-5.1,0.3-7.5,0.8C326,0.3,322.5,0,318.9,0h-12
	c-8.6,0-16.6,3.2-22.7,8.4c-1.4-0.2-2.7-0.3-4.1-0.3h-9.3c-9.6,0-18.4,3.9-24.7,10.2c-3.2,0.1-6.3,0.3-9.3,1c-0.6,0-1.2,0-1.8,0
	h-9.4c-2.8,0-5.5,0.3-8.2,1c-4.6-1.2-9.5-1.9-14.6-1.9c-7.9,0-15.3,1.5-22,4.2c-6.6-2.7-14-4.2-21.8-4.2c-7.2,0-14,1.2-20.3,3.5
	c-6-2.4-12.7-3.6-19.9-3.6c-3.5,0-7,0.3-10.3,1c-0.6,0-1.2,0-1.8,0h-9.4c-2.6,0-5.1,0.3-7.5,0.8c-4.5-1.2-9.3-1.8-14.4-1.8
	c-0.6,0-1.1,0-1.7,0c-6.3-9.1-16.8-15-28.7-15H35C15.7,3.3,0,19,0,38.3v56.1c0,19.3,15.7,35,35,35h10c1.5,0,3-0.1,4.5-0.3
	c1.5,0.2,2.9,0.3,4.5,0.3h9.5c2.9,0,5.8-0.3,8.5-1c2.7,0.6,5.6,1,8.5,1H90c1.2,0,2.4-0.1,3.7-0.2c1.2,0.1,2.4,0.2,3.6,0.2h9.5
	c2.9,0,5.8-0.3,8.5-1c2.7,0.6,5.6,1,8.5,1l9.7-0.1c3.1,0,6.1-0.4,8.9-1.2c5.2,1.5,10.7,2.3,16.6,2.3c7.8,0,15.1-1.5,21.7-4.2
	c6.7,2.7,14.1,4.2,22.1,4.2c5.1,0,10.1-0.7,14.8-1.9c2.6,0.6,5.3,0.9,8,0.9h9.5c2.9,0,5.8-0.3,8.5-1c2.7,0.6,5.6,1,8.5,1l9.7-0.1
	c2.8,0,5.5-0.3,8.1-1c4.1,1,8.4,1.5,13,1.5c4.3,0,8.3-0.4,12.2-1.3c13.5-2.7,23.8-13,27.1-25.8c2.1-0.1,4.7-0.2,7.7-0.7
	c2.3,0.5,4.6,0.7,7,0.7l22.2,0.1c19.3,0,35-15.7,35-35v-4.9c0-3.8-0.6-7.5-1.7-10.9v-1.2C393.5,47.4,394.1,43.7,394.1,39.9z"/>
<g>
	<path class="st1" d="M35,38.3h10v56.1H35V38.3z"/>
	<path class="st1" d="M90,94.4h-9.6V70.9c0-4.4-0.3-6.3-2.2-8.2c-1.6-1.6-3.4-1.9-6-1.9c-4,0-8.7,2.4-8.7,11.6v22H54V54.3h9.4v6
		c2-4.7,6.2-7,12.1-7c5.1,0,8.4,1.3,11.2,4.1c2.8,2.9,3.4,6.9,3.4,12.7L90,94.4L90,94.4z"/>
	<path class="st1" d="M133.4,94.4h-9.6V70.9c0-4.4-0.3-6.3-2.2-8.2c-1.6-1.6-3.4-1.9-6-1.9c-4,0-8.7,2.4-8.7,11.6v22h-9.5V54.3h9.4
		v6c2-4.7,6.2-7,12.1-7c5.1,0,8.4,1.3,11.2,4.1c2.8,2.9,3.4,6.9,3.4,12.7L133.4,94.4L133.4,94.4z"/>
	<path class="st1" d="M159,53.4c12.4,0,20.4,8.8,20.4,21s-8.1,21-20.4,21s-20.5-7.9-20.5-21C138.4,62.1,146.4,53.4,159,53.4z
		 M159,60.3c-7.4,0-10.3,4.3-10.3,14s2.9,14,10.3,14s10.3-4.3,10.3-14S166.1,60.3,159,60.3z"/>
	<path class="st1" d="M202.8,53.4c10.2,0,16.3,5.5,17.9,14.2l-9,1.6c-1-5.4-3.5-8.6-9-8.6c-7.9,0-9.9,4.9-9.9,13.8
		s2.1,13.8,9.9,13.8c5.1,0,7.8-2.4,9.1-7.4l9.1,1c-1.4,8.2-8.3,13.7-18.2,13.7c-12.7,0-20.3-7.8-20.3-21
		C182.5,61.9,190.1,53.3,202.8,53.4L202.8,53.4z"/>
	<path class="st1" d="M261.7,94.4h-9.6V70.9c0-4.4-0.3-6.3-2.2-8.2c-1.6-1.6-3.4-1.9-6-1.9c-4,0-8.7,2.4-8.7,11.6v22h-9.5V54.3h9.4
		v6c2-4.7,6.2-7,12.1-7c5.1,0,8.4,1.3,11.2,4.1c2.8,2.9,3.4,6.9,3.4,12.7v24.3H261.7z"/>
	<path class="st1" d="M270.8,61.9H265v-7.6h5.8V43.2h9.3v11.1h8.2v7.6h-8.2v21.6c0,2.3,1.3,3,4.2,3c1,0,2.2-0.2,3.7-0.4l0.2,8.2
		c-1.6,0.3-3.4,0.5-5.3,0.5c-7.9,0-12.1-3.1-12.1-10.4L270.8,61.9L270.8,61.9z"/>
	<path class="st1" d="M331,64.5c-2.4,2.6-6.2,3.2-11.7,3.2h-12.4V35h12c2.4,0,4.5,0.2,6.4,0.7c3.7,0.8,6.4,3.3,6.4,8.2
		c0,3.2-1.6,5.8-4.3,7c3.7,1.4,5.6,3.8,5.6,7.7C332.9,61.2,332.2,63.1,331,64.5L331,64.5z M312.7,48.7h5.7c4.8,0,7.2-0.2,7.5-4.5
		c-0.2-4.2-2.7-4.4-7.4-4.5h-5.8L312.7,48.7L312.7,48.7z M326,55c-1.5-1.5-3.5-1.6-6.7-1.6h-6.6V63h6.4c5.4,0,7.8-0.3,8-4.7
		C327.2,56.8,326.8,55.7,326,55L326,55z"/>
	<path class="st1" d="M336.9,35h22.2v4.9h-16.4v8.9h14.6v4.8h-14.6v9.2h16.4v4.9h-22.2V35L336.9,35z"/>
</g>
</svg>
