<?xml version="1.0" encoding="utf-8"?>
<!-- Generator: Adobe Illustrator 27.6.1, SVG Export Plug-In . SVG Version: 6.00 Build 0)  -->
<svg version="1.1" id="Layer_3" xmlns="http://www.w3.org/2000/svg" xmlns:xlink="http://www.w3.org/1999/xlink" x="0px" y="0px"
	 viewBox="0 0 291.4 130.4" style="enable-background:new 0 0 291.4 130.4;" xml:space="preserve">
<style type="text/css">
	.st0{fill:#FF380E;}
	.st1{fill:#F0FCE1;}
</style>
<path class="st0" d="M289.4,55.8c0-0.4-0.1-0.8-0.1-1.2c0.7-3.2,1.1-6.5,1.1-9.8c0-0.2,0-0.4,0-0.6c-0.3-15.9-7.8-29.5-20.7-37.3
	c-10-6-20.3-6.8-27.1-6.9c-0.1,0-12.2,0-12.2,0c-0.6,0-1.1,0-1.7,0c-0.6,0-1.1,0-1.7,0h-22.2c-13.5,0-25.2,7.7-31.1,18.9
	c-1.2-0.2-2.4-0.3-3.6-0.4c-6.3-9.5-17-15.7-29.2-15.7h-9.5c-2,0-4,0.2-6,0.5c-0.6,0-1.1,0-1.7,0h-9.5c-1.3,0-2.6,0.1-3.8,0.2
	c-1.3-0.1-2.5-0.2-3.8-0.2h-9.5c-0.6,0-1.1,0-1.7,0c-2-0.3-4-0.5-6-0.5H80c-6.7,0-12.9,1.9-18.2,5.1c-5.1-2.9-11-4.6-17.3-4.6H35
	C15.7,3.3,0,19,0,38.3v56.1c0,19.3,15.7,35,35,35h9.5c0.7,0,1.3,0,2,0c3.2,0.7,6.6,1,10,1v0c5.2,0,10.2-0.7,14.9-2.1
	c2.8,0.7,5.7,1.1,8.7,1.1h9.5c1.3,0,2.6-0.1,3.8-0.2c1.3,0.1,2.5,0.2,3.8,0.2h9.5c1.3,0,2.6-0.1,3.8-0.2c1.3,0.1,2.5,0.2,3.8,0.2
	h9.5c1.3,0,2.6-0.1,3.8-0.2c1.3,0.1,2.5,0.2,3.8,0.2h9.5c3.2,0,6.3-0.4,9.3-1.2c5.1,1.4,10.5,2.2,16.1,2.2v0
	c21.6,0,39.4-10.6,48.3-27.9c2-0.2,4-0.6,5.9-1.2c3.1,0.9,6.5,1.4,9.9,1.4h5.8c2.4,0,4.7-0.2,7-0.7c2.3,0.5,4.6,0.7,7,0.7l0,0h6.3
	c15.1,0,28.4-9.6,33.2-23.9l0-0.1C292.1,71.1,292,63.1,289.4,55.8z"/>
<g>
	<path class="st1" d="M56.4,95.3c-5.1,0-9.6-2.6-11.9-6.5v5.5H35V38.3h9.5v21c2.6-3.8,7-6,12.2-6c10.6,0,17.9,8.4,17.9,21.1
		S67.1,95.4,56.4,95.3L56.4,95.3z M54.1,60.3c-7.1,0-9.9,5.2-9.9,14.1s3.3,13.9,9.9,13.9c7.3,0,10-4.5,10-14S61.4,60.3,54.1,60.3z"
		/>
	<path class="st1" d="M80,37.8h9.5v10.3H80C80,48.1,80,37.8,80,37.8z M80,54.3h9.5v40.1H80V54.3z"/>
	<path class="st1" d="M97.1,38.3h9.5v56.1h-9.5V38.3z"/>
	<path class="st1" d="M114.3,38.3h9.5v56.1h-9.5V38.3z"/>
	<path class="st1" d="M131.4,37.8h9.5v10.3h-9.5C131.4,48.1,131.4,37.8,131.4,37.8z M131.4,54.3h9.5v40.1h-9.5V54.3z"/>
	<path class="st1" d="M185.7,77h-29.8c0.2,7.4,3.5,11.2,10.2,11.2c5.8,0,8.9-2.5,9.8-7.4l9.2,0.7c-2,9.1-8.7,13.8-18.9,13.8
		c-6,0-10.9-1.8-14.5-5.5c-3.6-3.6-5.4-8.8-5.4-15.6c0-6.3,1.8-11.5,5.4-15.3c3.6-3.8,8.4-5.6,14.4-5.6c6.3,0,11.6,2.4,15.1,6.7
		c3,3.8,4.6,9.3,4.6,15.7L185.7,77L185.7,77z M156,69.9h20c-0.1-2.3-1-4.7-2.2-6.2c-1.8-2.2-4.2-3.1-7.7-3.1c-3.8,0-6.4,1.2-8.1,3.5
		C156.9,65.5,156.3,67.6,156,69.9L156,69.9z"/>
	<path class="st1" d="M204.7,35h22.2v4.9h-16.4v8.9h14.7v4.8h-14.7v14.1h-5.8L204.7,35L204.7,35z"/>
	<path class="st1" d="M256.4,67.7h-6.3c-1-1.8-1.3-3-1.3-7.5c0-4-1.8-5.4-6.4-5.4h-6.2v12.9h-5.8V35h12c7.4,0,12.9,1.5,13,9.8
		c0,3.9-2,6.8-5.1,8.1c3,1.1,4.4,3.4,4.4,7s0.4,5.7,1.9,7.7L256.4,67.7L256.4,67.7z M242,39.7h-5.8v10.4h5.8c4.5,0,7.7-0.7,7.7-5.1
		C249.4,40.1,246.6,39.8,242,39.7L242,39.7z"/>
</g>
</svg>
