<?xml version="1.0" encoding="utf-8"?>
<!-- Generator: Adobe Illustrator 27.6.1, SVG Export Plug-In . SVG Version: 6.00 Build 0)  -->
<svg version="1.1" id="Layer_3" xmlns="http://www.w3.org/2000/svg" xmlns:xlink="http://www.w3.org/1999/xlink" x="0px" y="0px"
	 viewBox="0 0 454.4 194.3" style="enable-background:new 0 0 454.4 194.3;" xml:space="preserve">
<style type="text/css">
	.st0{fill:#F0FCE1;}
	.st1{fill:#FF380E;}
</style>
<path class="st0" d="M454.4,39.9V35c0-19.3-15.7-35-35-35h-22.2c-2.6,0-5.1,0.3-7.5,0.8c-3.4-0.5-6.9-0.8-10.5-0.8h-12
	c-5.2,0-10.2,1.2-14.7,3.2C345.1,0.5,338,0,332.9,0c-0.1,0-12.2,0-12.2,0c-2.6,0-5.1,0.3-7.5,0.8c-3.4-0.5-6.9-0.8-10.5-0.8h-12
	c-13.4,0-25.1,7.5-30.9,18.6c-1.9-0.2-3.8-0.3-5.9-0.3c-7.5,0-14.5,1.1-20.7,3.2c-5.7-2.1-12-3.2-18.8-3.2c-3.5,0-7,0.3-10.3,1
	c-0.6,0-1.2,0-1.8,0h-9.4c-3.2,0-6.3,0.4-9.3,1.3c-3.9-1.1-8-1.8-12.2-2.1c-6.3-9.2-16.9-15.2-28.8-15.2h-9.5
	c-9.9,0-18.9,4.2-25.3,10.8C101.4,7.4,92.5,3.3,82.5,3.3h-10c-4.3,0-8.4,0.8-12.3,2.2c-3.8-1.4-8-2.2-12.3-2.2H38
	C18.6,3.3,3,19,3,38.3v56.1c0,3.6,0.6,7.1,1.6,10.4C1.6,112.5,0,121.1,0,130.3c0,37.7,25.7,64,62.5,64c7.9,0,15.3-1.3,22.1-3.7
	c6,2.4,12.6,3.7,19.6,3.7v0c3.8,0,7.4-0.4,10.9-1.1c0.9,0.1,1.8,0.1,2.7,0.1h9.5c2.3,0,4.6-0.2,6.7-0.7c4.5,1.1,9.2,1.6,14.2,1.6
	c7.4,0,14.3-1.1,20.6-3.4c6.1,2.2,12.8,3.4,19.7,3.4l0,0c5.6,0,11-0.7,16.1-2.1c2.9,0.8,5.9,1.2,8.9,1.2h9.5c1.3,0,2.6-0.1,3.8-0.2
	c1.3,0.1,2.5,0.2,3.8,0.2h9.5c2.2,0,4.4-0.2,6.5-0.6c4.1,1,8.5,1.6,13.1,1.6l0,0c3.8,0,7.4-0.4,10.9-1.1c0.9,0.1,1.8,0.1,2.7,0.1
	h9.5c19.3,0,35-15.7,35-35V158c0-3.3-0.5-6.5-1.4-9.7v-17.8c0-10.5-3-20.1-8.6-28c1.7-0.1,3.7-0.3,5.8-0.6c2.3,0.5,4.6,0.7,7,0.7
	h5.8c2.4,0,4.7-0.2,7-0.7c2.3,0.5,4.6,0.7,7,0.7l0,0h6.3c3.5,0,6.9-0.5,10.2-1.5c3.3,1,6.7,1.5,10.3,1.5l0,0h12.4
	c2.2,0,6,0,10.6-0.7c2.3,0.5,4.6,0.7,7,0.7v0h22.2c19.3,0,35-15.7,35-35v-4.9c0-3.8-0.6-7.5-1.7-10.9v-1.2
	C453.8,47.3,454.4,43.7,454.4,39.9z"/>
<g>
	<path class="st1" d="M38,38.3h10v23.5h24.5V38.3h10v56.1h-10v-24H48v24H38V38.3z"/>
	<path class="st1" d="M127.6,77H97.8c0.2,7.4,3.5,11.2,10.2,11.2c5.8,0,8.9-2.5,9.8-7.4l9.2,0.7c-2,9.1-8.7,13.8-18.9,13.8
		c-6,0-10.9-1.8-14.5-5.5c-3.6-3.6-5.4-8.8-5.4-15.6c0-6.3,1.8-11.5,5.4-15.3c3.6-3.8,8.4-5.6,14.4-5.6c6.3,0,11.6,2.4,15.1,6.7
		c3,3.8,4.6,9.3,4.6,15.7L127.6,77L127.6,77z M97.9,69.9h20c-0.1-2.3-1-4.7-2.2-6.2c-1.8-2.2-4.2-3.1-7.7-3.1
		c-3.8,0-6.4,1.2-8.1,3.5C98.8,65.6,98.2,67.6,97.9,69.9L97.9,69.9z"/>
	<path class="st1" d="M133.1,38.3h9.5v56.1h-9.5V38.3z"/>
	<path class="st1" d="M187.4,77h-29.8c0.2,7.4,3.5,11.2,10.2,11.2c5.8,0,8.9-2.5,9.8-7.4l9.2,0.7c-2,9.1-8.7,13.8-18.9,13.8
		c-6,0-10.9-1.8-14.5-5.5c-3.6-3.6-5.4-8.8-5.4-15.6c0-6.3,1.8-11.5,5.4-15.3c3.6-3.8,8.4-5.6,14.4-5.6c6.3,0,11.6,2.4,15.1,6.7
		c3,3.8,4.6,9.3,4.6,15.7L187.4,77L187.4,77z M157.7,69.9h20c-0.1-2.3-1-4.7-2.2-6.2c-1.8-2.2-4.2-3.1-7.7-3.1
		c-3.8,0-6.4,1.2-8.1,3.5C158.6,65.6,158,67.6,157.7,69.9L157.7,69.9z"/>
	<path class="st1" d="M228.9,94.4h-9.6V70.9c0-4.4-0.3-6.3-2.2-8.2c-1.6-1.6-3.4-1.9-6-1.9c-4,0-8.7,2.4-8.7,11.6v22h-9.5V54.3h9.4
		v6c2-4.7,6.2-7,12.1-7c5.1,0,8.4,1.3,11.2,4.1c2.8,2.9,3.4,6.9,3.4,12.7L228.9,94.4L228.9,94.4z"/>
	<path class="st1" d="M248.9,70.9l11.9-2.2c0-3.1-0.2-4.6-1.2-6.1s-3.1-2.2-6.4-2.2c-5.5,0-8.1,2.1-8.1,7.4l-9.3-1.2
		c0.2-4.7,1.9-8,5-10.2c3-2.1,7.4-3.1,13.1-3.1c10.3,0,16.1,4.6,16.1,13.2v20.6c0,2.5,0.5,4.7,1.4,6.9v0.3h-9.5
		c-0.4-1.8-0.6-3.7-0.6-5.7c-2.2,4.2-6.6,6.7-13.1,6.7c-7.5,0-13.9-4-13.9-12S240.6,72.4,248.9,70.9L248.9,70.9z M260.8,75.3
		l-10.4,2.2c-4.2,0.9-6.2,2.2-6.2,5.7c0,3.2,2.6,5,6.2,5c6.7,0,10.5-3.4,10.5-9.2V75.3L260.8,75.3z"/>
	<path class="st1" d="M314.8,64.5c-2.4,2.6-6.2,3.2-11.7,3.2h-12.4V35h12c2.4,0,4.5,0.2,6.4,0.7c3.7,0.8,6.4,3.3,6.4,8.2
		c0,3.2-1.6,5.8-4.3,7c3.7,1.4,5.6,3.8,5.6,7.7C316.7,61.2,316.1,63.1,314.8,64.5L314.8,64.5z M296.5,48.7h5.7
		c4.8,0,7.2-0.2,7.5-4.5c-0.2-4.2-2.7-4.4-7.4-4.5h-5.8L296.5,48.7L296.5,48.7z M309.9,55c-1.5-1.5-3.5-1.6-6.7-1.6h-6.6V63h6.4
		c5.4,0,7.8-0.3,8-4.7C311,56.8,310.6,55.7,309.9,55L309.9,55z"/>
	<path class="st1" d="M346.8,67.7h-6.3c-1-1.8-1.3-3-1.3-7.5c0-4-1.8-5.4-6.4-5.4h-6.2v12.9h-5.8V35h12c7.4,0,12.9,1.5,13,9.8
		c0,3.9-2,6.8-5.1,8.1c3,1.1,4.4,3.4,4.4,7s0.4,5.7,1.9,7.7L346.8,67.7L346.8,67.7z M332.4,39.7h-5.8v10.4h5.8
		c4.5,0,7.7-0.7,7.7-5.1C339.8,40.1,337,39.8,332.4,39.7L332.4,39.7z"/>
	<path class="st1" d="M348.2,49.1h14.2v5h-14.2V49.1z"/>
	<path class="st1" d="M391.3,64.5c-2.4,2.6-6.2,3.2-11.7,3.2h-12.4V35h12c2.4,0,4.5,0.2,6.4,0.7c3.7,0.8,6.4,3.3,6.4,8.2
		c0,3.2-1.6,5.8-4.4,7c3.7,1.4,5.6,3.8,5.6,7.7C393.1,61.2,392.5,63.1,391.3,64.5L391.3,64.5z M373,48.7h5.7c4.8,0,7.2-0.2,7.5-4.5
		c-0.2-4.2-2.7-4.4-7.4-4.5H373L373,48.7L373,48.7z M386.3,55c-1.5-1.5-3.5-1.6-6.7-1.6H373V63h6.4c5.4,0,7.8-0.3,8-4.7
		C387.5,56.8,387.1,55.7,386.3,55L386.3,55z"/>
	<path class="st1" d="M397.2,35h22.2v4.9H403v8.9h14.6v4.8H403v9.2h16.4v4.9h-22.2V35L397.2,35z"/>
	<path class="st1" d="M62.5,101.3c12.2,0,22,6.2,25,18.3l-10.4,2c-1.5-7.4-6.5-12.2-14.5-12.2c-6.1,0-10.4,1.8-13,5.3
		c-2.6,3.5-3.9,8.7-3.9,15.6c0,6.9,1,11.6,3.5,15.1c2.7,3.9,7.2,5.8,13.4,5.8c7.9,0,12.8-4.5,14.8-11.3l10.7,2.8
		c-4.4,10.8-13.3,16.6-25.5,16.6c-17.4,0-27.5-10.4-27.5-29C35,113.1,45,101.3,62.5,101.3L62.5,101.3z"/>
	<path class="st1" d="M104.9,134.9l11.9-2.2c0-3.1-0.2-4.6-1.2-6.1c-1-1.5-3.1-2.2-6.4-2.2c-5.5,0-8.1,2.1-8.1,7.4l-9.3-1.2
		c0.2-4.7,1.9-8,5-10.2c3-2.1,7.4-3.1,13.1-3.1c10.3,0,16.1,4.6,16.1,13.2v20.6c0,2.5,0.5,4.7,1.4,6.9v0.3h-9.5
		c-0.4-1.8-0.6-3.7-0.6-5.7c-2.2,4.2-6.7,6.6-13.1,6.6c-7.5,0-13.9-4-13.9-12S96.6,136.4,104.9,134.9L104.9,134.9z M116.8,139.3
		l-10.4,2.2c-4.2,0.9-6.2,2.2-6.2,5.7c0,3.2,2.6,5,6.2,5c6.7,0,10.5-3.4,10.5-9.2V139.3L116.8,139.3z"/>
	<path class="st1" d="M139.3,144.6c0.1,5.1,3.5,7.9,9,7.9s8.2-1.8,8.2-5.3c-0.4-3.1-2.5-3.6-8.6-5.1l-2.4-0.6
		c-8.4-2.2-13.6-4.2-13.9-12.2c0-8.2,7.4-12,15.8-12c9.6,0,16.2,3.8,17.1,12.7l-8.7,1.4c-0.2-4.9-3.2-7.4-8.3-7.4
		c-3.9,0-6.8,1.6-6.8,4.5s3.1,4,8.8,5.2c3.6,0.7,6.4,1.5,8.4,2.2c4.2,1.5,7.7,4.7,7.7,10.6c0,4.5-1.6,7.7-4.9,9.7
		c-3.3,2-7.4,3-12.3,3c-9.8,0-17.5-4.3-17.8-13.7L139.3,144.6L139.3,144.6z"/>
	<path class="st1" d="M208.1,141h-29.8c0.2,7.4,3.5,11.2,10.2,11.2c5.8,0,8.9-2.5,9.8-7.4l9.2,0.7c-2,9.1-8.7,13.8-18.9,13.8
		c-6,0-10.9-1.8-14.5-5.5c-3.6-3.6-5.4-8.8-5.4-15.6c0-6.3,1.8-11.5,5.4-15.3c3.6-3.8,8.4-5.6,14.4-5.6c6.3,0,11.6,2.4,15.1,6.7
		c3,3.8,4.6,9.3,4.6,15.7L208.1,141L208.1,141z M178.4,133.9h20c-0.1-2.3-1-4.6-2.2-6.2c-1.8-2.2-4.2-3.1-7.7-3.1
		c-3.8,0-6.4,1.2-8.1,3.5C179.3,129.5,178.6,131.6,178.4,133.9L178.4,133.9z"/>
	<path class="st1" d="M213.5,102.3h9.5v56.1h-9.5C213.5,158.4,213.5,102.3,213.5,102.3z"/>
	<path class="st1" d="M230.7,102.3h9.5v56.1h-9.5C230.7,158.4,230.7,102.3,230.7,102.3z"/>
	<path class="st1" d="M260.4,134.9l11.9-2.2c0-3.1-0.2-4.6-1.2-6.1c-1-1.5-3.1-2.2-6.4-2.2c-5.5,0-8.1,2.1-8.1,7.4l-9.3-1.2
		c0.2-4.7,1.9-8,5-10.2c3-2.1,7.4-3.1,13.1-3.1c10.3,0,16.1,4.6,16.1,13.2v20.6c0,2.5,0.5,4.7,1.4,6.9v0.3h-9.5
		c-0.4-1.8-0.6-3.7-0.6-5.7c-2.2,4.2-6.6,6.6-13.1,6.6c-7.5,0-13.9-4-13.9-12S252.2,136.4,260.4,134.9L260.4,134.9z M272.4,139.3
		l-10.4,2.2c-4.2,0.9-6.2,2.2-6.2,5.7c0,3.2,2.6,5,6.2,5c6.7,0,10.5-3.4,10.5-9.2V139.3L272.4,139.3z"/>
</g>
</svg>
